<?xml version="1.0" encoding="UTF-8" standalone="no"?>
<svg
   xmlns:dc="http://purl.org/dc/elements/1.1/"
   xmlns:cc="http://creativecommons.org/ns#"
   xmlns:rdf="http://www.w3.org/1999/02/22-rdf-syntax-ns#"
   xmlns:svg="http://www.w3.org/2000/svg"
   xmlns="http://www.w3.org/2000/svg"
   xmlns:xlink="http://www.w3.org/1999/xlink"
   xmlns:sodipodi="http://sodipodi.sourceforge.net/DTD/sodipodi-0.dtd"
   xmlns:inkscape="http://www.inkscape.org/namespaces/inkscape"
   sodipodi:docname="capsule.svg"
   inkscape:version="1.0 (4035a4fb49, 2020-05-01)"
   id="svg8"
   version="1.1"
   viewBox="0 0 135.59876 144"
   height="144mm"
   width="135.59875mm">
  <defs
     id="defs2">
    <linearGradient
       inkscape:collect="always"
       id="linearGradient6186">
      <stop
         style="stop-color:#501644;stop-opacity:0"
         offset="0"
         id="stop6182" />
      <stop
         style="stop-color:#ffd5f6;stop-opacity:1"
         offset="1"
         id="stop6184" />
    </linearGradient>
    <linearGradient
       id="linearGradient6123"
       inkscape:collect="always">
      <stop
         id="stop6119"
         offset="0"
         style="stop-color:#501644;stop-opacity:1" />
      <stop
         id="stop6121"
         offset="1"
         style="stop-color:#ff00ff;stop-opacity:0;" />
    </linearGradient>
    <linearGradient
       id="linearGradient3786"
       inkscape:collect="always">
      <stop
         id="stop3782"
         offset="0"
         style="stop-color:#dbdbdb;stop-opacity:1;" />
      <stop
         id="stop3784"
         offset="1"
         style="stop-color:#dbdbdb;stop-opacity:0;" />
    </linearGradient>
    <linearGradient
       id="linearGradient3778"
       inkscape:collect="always">
      <stop
         id="stop3774"
         offset="0"
         style="stop-color:#dbdbdb;stop-opacity:1;" />
      <stop
         id="stop3776"
         offset="1"
         style="stop-color:#dbdbdb;stop-opacity:0;" />
    </linearGradient>
    <linearGradient
       inkscape:collect="always"
       id="linearGradient3418">
      <stop
         style="stop-color:#441650;stop-opacity:1"
         offset="0"
         id="stop3414" />
      <stop
         id="stop3424"
         offset="0.41973403"
         style="stop-color:#bc5fd3;stop-opacity:1" />
      <stop
         id="stop3422"
         offset="0.67516464"
         style="stop-color:#ab37c8;stop-opacity:1" />
      <stop
         id="stop3420"
         offset="0.84960496"
         style="stop-color:#cd87de;stop-opacity:1" />
      <stop
         style="stop-color:#892ca0;stop-opacity:1"
         offset="1"
         id="stop3416" />
    </linearGradient>
    <linearGradient
       id="linearGradient878"
       inkscape:collect="always">
      <stop
         id="stop874"
         offset="0"
         style="stop-color:#c307ba;stop-opacity:1;" />
      <stop
         id="stop876"
         offset="1"
         style="stop-color:#c307ba;stop-opacity:0;" />
    </linearGradient>
    <linearGradient
       gradientUnits="userSpaceOnUse"
       y2="205.7581"
       x2="107.20285"
       y1="247.2117"
       x1="106.92832"
       id="linearGradient880"
       xlink:href="#linearGradient878"
       inkscape:collect="always" />
    <filter
       height="1.1425321"
       y="-0.07126604"
       width="1.0893266"
       x="-0.044663306"
       id="filter2864"
       style="color-interpolation-filters:sRGB"
       inkscape:collect="always">
      <feGaussianBlur
         id="feGaussianBlur2866"
         stdDeviation="1.4917903"
         inkscape:collect="always" />
    </filter>
    <filter
       height="1.0573837"
       y="-0.028691795"
       width="1.099633"
       x="-0.0498165"
       id="filter3376"
       style="color-interpolation-filters:sRGB"
       inkscape:collect="always">
      <feGaussianBlur
         id="feGaussianBlur3378"
         stdDeviation="2.0151173"
         inkscape:collect="always" />
    </filter>
    <clipPath
       id="clipPath3390"
       clipPathUnits="userSpaceOnUse">
      <path
         d="m 104.44162,92.152639 c -9.968609,0.3273 -20.075107,3.060161 -28.192828,9.009541 -5.50613,4.03918 -10.125689,9.73923 -11.644069,16.51024 -0.976821,4.52808 -0.469421,9.18541 -0.590622,13.77593 0.0339,29.08679 -0.0952,58.17558 0.181452,87.26084 0.59459,6.68592 4.454678,12.69316 9.412078,17.04697 7.57373,6.66331 17.54483,10.12415 27.504219,10.93311 11.42086,0.94854 23.33265,-1.42975 32.9561,-7.82136 5.87355,-3.92674 10.90033,-9.59236 12.81508,-16.51019 1.17128,-4.38611 0.68191,-8.96604 0.79863,-13.44921 0.0301,-20.79423 0.0213,-41.58857 -0.005,-62.38281 -0.0298,-8.85695 -0.0354,-17.71771 -0.18781,-26.5717 -0.74961,-6.73078 -4.75247,-12.71579 -9.82319,-17.03162 -7.63635,-6.52307 -17.59176,-9.848731 -27.51139,-10.5956 -1.90003,-0.15476 -3.80671,-0.196191 -5.71247,-0.174141 z"
         style="fill:#999999;fill-opacity:0.560484;stroke-width:3.00604;stroke-linecap:round;stroke-linejoin:round;stroke-miterlimit:4;stroke-dasharray:none;stroke-opacity:0.996078"
         id="path3392" />
    </clipPath>
    <radialGradient
       gradientUnits="userSpaceOnUse"
       gradientTransform="matrix(1.3042667,0,0,0.22026434,-221.69393,102.77752)"
       r="40.761185"
       fy="167.35428"
       fx="256.2388"
       cy="167.35428"
       cx="256.2388"
       id="radialGradient3412"
       xlink:href="#linearGradient3418"
       inkscape:collect="always" />
    <filter
       height="2.4195738"
       y="-0.70978695"
       width="2.4579408"
       x="-0.72897041"
       id="filter3754"
       style="color-interpolation-filters:sRGB"
       inkscape:collect="always">
      <feGaussianBlur
         id="feGaussianBlur3756"
         stdDeviation="4.0360013"
         inkscape:collect="always" />
    </filter>
    <linearGradient
       gradientUnits="userSpaceOnUse"
       y2="81.934128"
       x2="147.97104"
       y1="45.73917"
       x1="85.267418"
       id="linearGradient3780"
       xlink:href="#linearGradient3778"
       inkscape:collect="always" />
    <linearGradient
       gradientUnits="userSpaceOnUse"
       y2="187.86214"
       x2="53.596901"
       y1="162.72308"
       x1="79.638626"
       id="linearGradient3788"
       xlink:href="#linearGradient3786"
       inkscape:collect="always" />
    <filter
       height="1.0672756"
       y="-0.033637859"
       width="1.0113615"
       x="-0.0056807562"
       id="filter4410"
       style="color-interpolation-filters:sRGB"
       inkscape:collect="always">
      <feGaussianBlur
         id="feGaussianBlur4412"
         stdDeviation="0.25167385"
         inkscape:collect="always" />
    </filter>
    <filter
       height="1.3839999"
       y="-0.192"
       width="1.3839999"
       x="-0.192"
       id="filter6081"
       style="color-interpolation-filters:sRGB"
       inkscape:collect="always">
      <feGaussianBlur
         id="feGaussianBlur6083"
         stdDeviation="3.2"
         inkscape:collect="always" />
    </filter>
    <radialGradient
       gradientUnits="userSpaceOnUse"
       gradientTransform="matrix(2.6119765,-1.5023381,1.8423523,3.2031274,-694.13887,-301.76646)"
       r="19.468592"
       fy="242.00342"
       fx="154.02417"
       cy="242.00342"
       cx="154.02417"
       id="radialGradient6125"
       xlink:href="#linearGradient6123"
       inkscape:collect="always" />
    <linearGradient
       gradientUnits="userSpaceOnUse"
       y2="215.08226"
       x2="143.48726"
       y1="239.71471"
       x1="162.55402"
       id="linearGradient6180"
       xlink:href="#linearGradient6186"
       inkscape:collect="always" />
    <radialGradient
       r="19.468592"
       fy="242.00342"
       fx="154.02417"
       cy="242.00342"
       cx="154.02417"
       gradientTransform="matrix(1.1828364,-0.67605013,0.83431125,1.441403,-216.2779,-20.633413)"
       gradientUnits="userSpaceOnUse"
       id="radialGradient6215"
       xlink:href="#linearGradient6123"
       inkscape:collect="always" />
    <linearGradient
       gradientTransform="matrix(0.45285109,0,0,0.44999866,98.063641,115.16109)"
       y2="215.08226"
       x2="143.48726"
       y1="239.71471"
       x1="162.55402"
       gradientUnits="userSpaceOnUse"
       id="linearGradient6217"
       xlink:href="#linearGradient6186"
       inkscape:collect="always" />
    <radialGradient
       r="19.468592"
       fy="242.00342"
       fx="154.02417"
       cy="242.00342"
       cx="154.02417"
       gradientTransform="matrix(1.1828364,-0.67605013,0.83431125,1.441403,-216.2779,-20.633413)"
       gradientUnits="userSpaceOnUse"
       id="radialGradient6235"
       xlink:href="#linearGradient6123"
       inkscape:collect="always" />
    <linearGradient
       y2="215.08226"
       x2="143.48726"
       y1="239.71471"
       x1="162.55402"
       gradientTransform="matrix(0.45285109,0,0,0.44999866,98.063641,115.16109)"
       gradientUnits="userSpaceOnUse"
       id="linearGradient6237"
       xlink:href="#linearGradient6186"
       inkscape:collect="always" />
  </defs>
  <sodipodi:namedview
     fit-margin-bottom="0"
     fit-margin-right="0"
     fit-margin-left="0"
     fit-margin-top="-0.4"
     inkscape:snap-global="false"
     inkscape:window-maximized="1"
     inkscape:window-y="-8"
     inkscape:window-x="-8"
     inkscape:window-height="1017"
     inkscape:window-width="1920"
     showgrid="false"
     inkscape:document-rotation="0"
     inkscape:current-layer="layer1"
     inkscape:document-units="mm"
     inkscape:cy="211.38928"
     inkscape:cx="99.096511"
     inkscape:zoom="0.73673541"
     inkscape:pageshadow="2"
     inkscape:pageopacity="0.0"
     borderopacity="1.0"
     bordercolor="#666666"
     pagecolor="#ffffff"
     id="base" />
  <metadata
     id="metadata5">
    <rdf:RDF>
      <cc:Work
         rdf:about="">
        <dc:format>image/svg+xml</dc:format>
        <dc:type
           rdf:resource="http://purl.org/dc/dcmitype/StillImage" />
        <dc:title></dc:title>
      </cc:Work>
    </rdf:RDF>
  </metadata>
  <g
     transform="translate(-39.441554,-68.437989)"
     id="layer1"
     inkscape:groupmode="layer"
     inkscape:label="Layer 1">
    <g
       transform="translate(0,-5.8208336)"
       id="g5326">
      <path
         style="fill:url(#radialGradient3412);fill-opacity:1;stroke:none;stroke-width:0.352778;stroke-linecap:round;stroke-linejoin:round;stroke-miterlimit:4;stroke-dasharray:none;stroke-opacity:1;filter:url(#filter4410)"
         id="path3394"
         sodipodi:type="arc"
         sodipodi:cx="112.5098"
         sodipodi:cy="139.63971"
         sodipodi:rx="53.163456"
         sodipodi:ry="8.9782352"
         sodipodi:start="0"
         sodipodi:end="6.2575988"
         sodipodi:open="true"
         sodipodi:arc-type="arc"
         d="m 165.67326,139.63971 a 53.163456,8.9782352 0 0 1 -52.82339,8.97805 53.163456,8.9782352 0 0 1 -53.499172,-8.86319 53.163456,8.9782352 0 0 1 52.138972,-9.09144 53.163456,8.9782352 0 0 1 54.16619,8.74688"
         transform="matrix(1.0059382,0,0,0.99980706,-5.6834786,6.8833987)" />
      <g
         id="g3382"
         clip-path="url(#clipPath3390)"
         transform="rotate(40.00635,138.57157,160.00794)">
        <path
           d="m 105.8177,85.458378 c -26.891681,0 -48.540704,16.840092 -48.540704,37.757902 v 93.04445 c 0,20.91782 21.649023,37.75739 48.540704,37.75739 26.89168,0 48.54122,-16.83957 48.54122,-37.75739 v -93.04445 c 0,-20.91781 -21.64954,-37.757902 -48.54122,-37.757902 z m -0.29869,8.489921 c 2.54167,0.0021 5.05222,0.165164 7.58404,0.507463 8.69197,1.156391 17.36619,4.538738 23.95254,10.527518 4.57621,4.14709 8.08832,9.77506 8.66252,15.94477 0.19521,19.49992 0.16474,39.00304 0.16175,58.50444 -0.0223,11.95521 0.0483,23.91113 -0.0305,35.86602 0.059,2.70599 -0.28421,5.49812 -1.16376,8.02019 -2.29657,6.63203 -7.49308,11.89186 -13.40641,15.47192 -9.47335,5.71228 -20.93409,7.59565 -31.843539,6.34018 -9.742981,-1.13584 -19.537409,-5.02297 -26.454713,-12.19409 -3.817961,-3.98582 -6.630564,-9.06306 -7.066234,-14.57482 -0.15488,-16.35705 -0.156382,-32.71755 -0.165884,-49.07607 -0.0068,-14.57339 0.02278,-29.14731 -0.0031,-43.72033 -0.09459,-3.59517 0.239212,-7.26503 1.655196,-10.6071 2.733569,-6.64286 8.283271,-11.77177 14.496791,-15.17324 6.912482,-3.798387 14.697421,-5.551974 22.529893,-5.828064 0.36453,-0.0062 0.72831,-0.0091 1.09141,-0.0088 z"
           style="fill:#c307ba;fill-opacity:1;stroke-width:2.96892;stroke-linecap:round;stroke-linejoin:round;stroke-miterlimit:4;stroke-dasharray:none;stroke-opacity:0.996078;filter:url(#filter3376)"
           id="rect10" />
        <path
           d="m 146.73476,222.77878 a 40.080963,25.119234 0 0 1 -39.82459,25.11872 40.080963,25.119234 0 0 1 -40.33406,-24.79737 40.080963,25.119234 0 0 1 39.30858,-25.43596 40.080963,25.119234 0 0 1 40.83695,24.47196"
           transform="matrix(1.0797508,0,0,1,-9.2614531,0)"
           sodipodi:arc-type="arc"
           sodipodi:open="true"
           sodipodi:end="6.2575988"
           sodipodi:start="0"
           sodipodi:ry="25.119234"
           sodipodi:rx="40.080963"
           sodipodi:cy="222.77878"
           sodipodi:cx="106.65379"
           sodipodi:type="arc"
           id="path864"
           style="fill:url(#linearGradient880);fill-opacity:1;stroke-width:2.517;stroke-linecap:round;stroke-linejoin:round;stroke-miterlimit:4;stroke-dasharray:none;stroke-opacity:0.996078;filter:url(#filter2864)" />
      </g>
      <path
         id="rect3426"
         style="fill:#dbdbdb;fill-opacity:0.112903;stroke-width:2.51265;stroke-linecap:round;stroke-linejoin:round;stroke-miterlimit:4;stroke-dasharray:none;stroke-opacity:0.996078"
         d="M 157.48601,86.720836 C 139.59778,71.707451 116.23421,70.299599 105.1015,83.564063 L 45.217679,154.91476 c -11.132714,13.26447 -5.693922,36.02943 12.194306,51.04281 2.94181,2.46903 6.031974,4.56759 9.191191,6.29595 C 54.418139,197.79401 51.79681,179.46641 61.331001,168.10656 L 121.21449,96.756256 c 9.30188,-11.083058 27.14233,-11.920386 43.19332,-3.139172 -2.04297,-2.424307 -4.35327,-4.740509 -6.9218,-6.896248 z" />
      <path
         id="path3443"
         style="fill:url(#linearGradient3788);fill-opacity:1;stroke-width:2.70349;stroke-linecap:round;stroke-linejoin:round;stroke-miterlimit:4;stroke-dasharray:none;stroke-opacity:0.996078"
         d="m 51.252497,154.91972 c -12.241154,14.75467 -4.303051,35.3968 8.585285,46.18884 2.803899,2.45094 8.022826,-0.10728 3.436089,-4.09405 -12.635171,-10.70664 -17.463823,-26.64882 -7.961738,-38.68762 3.491547,-4.21874 -1.589596,-6.37538 -4.059636,-3.40717 z"
         sodipodi:nodetypes="ccccc" />
      <path
         sodipodi:nodetypes="ccccc"
         d="m 146.8494,87.349695 c -14.84663,-12.129449 -35.42826,-4.035787 -46.12273,8.933633 -2.429708,2.822317 0.16783,8.021782 4.11984,3.405123 10.61098,-12.715615 26.51626,-17.66444 38.62643,-8.25349 4.24498,3.459606 6.36321,-1.637658 3.37646,-4.085216 z"
         style="fill:url(#linearGradient3780);fill-opacity:1;stroke-width:2.70349;stroke-linecap:round;stroke-linejoin:round;stroke-miterlimit:4;stroke-dasharray:none;stroke-opacity:0.996078"
         id="path3498" />
      <path
         d="m 108.45706,91.218864 a 6.6438932,6.8234582 0 0 1 -6.60139,6.823319 6.6438932,6.8234582 0 0 1 -6.685848,-6.736027 6.6438932,6.8234582 0 0 1 6.515858,-6.909493 6.6438932,6.8234582 0 0 1 6.76921,6.647632"
         style="fill:#dbdbdb;fill-opacity:1;stroke-width:2.517;stroke-linecap:round;stroke-linejoin:round;stroke-miterlimit:4;stroke-dasharray:none;stroke-opacity:0.996078;filter:url(#filter3754)"
         id="path3500"
         sodipodi:type="arc"
         sodipodi:cx="101.81317"
         sodipodi:cy="91.218864"
         sodipodi:rx="6.6438932"
         sodipodi:ry="6.8234582"
         sodipodi:start="0"
         sodipodi:end="6.2575988"
         sodipodi:open="true"
         sodipodi:arc-type="arc"
         transform="rotate(40.00635,121.84815,146.09921)" />
    </g>
    <g
       inkscape:label="capsuleBubble2"
       transform="matrix(0.45285109,0,0,0.44999866,-7.5765732,58.297743)"
       id="g6205">
      <path
         style="opacity:0.570968;fill:#ff55dd;fill-opacity:0.992157;stroke:none;stroke-width:1.411;stroke-linecap:round;stroke-linejoin:round;stroke-miterlimit:4;stroke-dasharray:none;stroke-opacity:0.988235;filter:url(#filter6081)"
         id="path5483"
         sodipodi:type="arc"
         sodipodi:cx="154.01633"
         sodipodi:cy="225.50122"
         sodipodi:rx="20"
         sodipodi:ry="20"
         sodipodi:start="0"
         sodipodi:end="6.2575988"
         sodipodi:open="true"
         sodipodi:arc-type="arc"
         d="m 174.01633,225.50122 a 20,20 0 0 1 -19.87207,19.99959 20,20 0 0 1 -20.1263,-19.74373 20,20 0 0 1 19.61459,-20.25218 20,20 0 0 1 20.37723,19.48465" />
      <path
         id="path6085"
         style="opacity:0.570968;mix-blend-mode:normal;fill:url(#radialGradient6125);fill-opacity:1;stroke:#b30cab;stroke-width:1.411;stroke-linecap:round;stroke-linejoin:round;stroke-miterlimit:4;stroke-dasharray:none;stroke-opacity:0.988235"
         d="m 153.06055,207.63867 c -8.39238,0.34441 -16.03024,7.39335 -16.79533,15.80232 -0.88153,7.24914 3.11074,14.92305 9.77323,18.0494 5.83327,2.90941 13.31454,2.45182 18.52775,-1.5642 5.59706,-4.08192 8.60986,-11.6052 6.8714,-18.38432 -1.44568,-6.28503 -6.44293,-11.74492 -12.77549,-13.27625 -1.82267,-0.48615 -3.71688,-0.69159 -5.60156,-0.62695 z" />
      <path
         id="path6178"
         style="opacity:0.571;mix-blend-mode:normal;fill:url(#linearGradient6180);fill-opacity:1;stroke:none;stroke-width:1.411;stroke-linecap:round;stroke-linejoin:round;stroke-miterlimit:4;stroke-dasharray:none;stroke-opacity:0.988235"
         d="m 153.93555,208.7168 c -7.49436,-0.1744 -14.41926,5.57464 -16.26357,12.732 -1.9359,7.31038 1.92787,15.53555 8.58866,18.99706 5.13038,2.6848 11.60773,2.39172 16.5419,-0.60481 6.18123,-3.6183 9.28529,-11.51728 7.55353,-18.41608 -1.74944,-7.06963 -8.50105,-12.65198 -15.83638,-12.71313 -0.19466,-0.002 -0.38946,0.004 -0.58414,0.005 z" />
    </g>
    <g
       inkscape:label="capsuleBubble1"
       transform="translate(-84.816903,-34.262433)"
       id="g6225">
      <path
         d="m 174.01633,225.50122 a 20,20 0 0 1 -19.87207,19.99959 20,20 0 0 1 -20.1263,-19.74373 20,20 0 0 1 19.61459,-20.25218 20,20 0 0 1 20.37723,19.48465"
         sodipodi:arc-type="arc"
         sodipodi:open="true"
         sodipodi:end="6.2575988"
         sodipodi:start="0"
         sodipodi:ry="20"
         sodipodi:rx="20"
         sodipodi:cy="225.50122"
         sodipodi:cx="154.01633"
         sodipodi:type="arc"
         id="path6207"
         style="opacity:0.570968;fill:#ff55dd;fill-opacity:0.992157;stroke:none;stroke-width:1.411;stroke-linecap:round;stroke-linejoin:round;stroke-miterlimit:4;stroke-dasharray:none;stroke-opacity:0.988235;filter:url(#filter6081)"
         transform="matrix(0.45285109,0,0,0.44999866,98.063641,115.16109)" />
      <path
         d="m 167.37728,208.59821 c -3.8005,0.15499 -7.25931,3.327 -7.60579,7.11103 -0.3992,3.2621 1.40871,6.71535 4.42582,8.1222 2.6416,1.30923 6.02951,1.10332 8.39031,-0.70389 2.53464,-1.83685 3.89899,-5.22232 3.11173,-8.27292 -0.65468,-2.82825 -2.91769,-5.28519 -5.7854,-5.97429 -0.8254,-0.21877 -1.68319,-0.31121 -2.53667,-0.28213 z"
         style="opacity:0.570968;mix-blend-mode:normal;fill:url(#radialGradient6215);fill-opacity:1;stroke:#b30cab;stroke-width:0.636957;stroke-linecap:round;stroke-linejoin:round;stroke-miterlimit:4;stroke-dasharray:none;stroke-opacity:0.988235"
         id="path6209" />
      <path
         d="m 167.77352,209.08337 c -3.39383,-0.0785 -6.52978,2.50858 -7.36497,5.72938 -0.87668,3.28966 0.87304,6.99098 3.88938,8.54865 2.3233,1.20816 5.25657,1.07628 7.49102,-0.27216 2.79918,-1.62823 4.20485,-5.18276 3.42062,-8.28721 -0.79223,-3.18132 -3.84971,-5.69337 -7.17152,-5.72089 -0.0881,-9e-4 -0.17637,0.002 -0.26453,0.002 z"
         style="opacity:0.571;mix-blend-mode:normal;fill:url(#linearGradient6217);fill-opacity:1;stroke:none;stroke-width:0.636957;stroke-linecap:round;stroke-linejoin:round;stroke-miterlimit:4;stroke-dasharray:none;stroke-opacity:0.988235"
         id="path6211" />
    </g>
    <g
       inkscape:label="capsuleBubble0"
       id="g6233"
       transform="translate(-54.597707,-47.46746)">
      <path
         transform="matrix(0.45285109,0,0,0.44999866,98.063641,115.16109)"
         style="opacity:0.570968;fill:#ff55dd;fill-opacity:0.992157;stroke:none;stroke-width:1.411;stroke-linecap:round;stroke-linejoin:round;stroke-miterlimit:4;stroke-dasharray:none;stroke-opacity:0.988235;filter:url(#filter6081)"
         id="path6227"
         sodipodi:type="arc"
         sodipodi:cx="154.01633"
         sodipodi:cy="225.50122"
         sodipodi:rx="20"
         sodipodi:ry="20"
         sodipodi:start="0"
         sodipodi:end="6.2575988"
         sodipodi:open="true"
         sodipodi:arc-type="arc"
         d="m 174.01633,225.50122 a 20,20 0 0 1 -19.87207,19.99959 20,20 0 0 1 -20.1263,-19.74373 20,20 0 0 1 19.61459,-20.25218 20,20 0 0 1 20.37723,19.48465" />
      <path
         id="path6229"
         style="opacity:0.570968;mix-blend-mode:normal;fill:url(#radialGradient6235);fill-opacity:1;stroke:#b30cab;stroke-width:0.636957;stroke-linecap:round;stroke-linejoin:round;stroke-miterlimit:4;stroke-dasharray:none;stroke-opacity:0.988235"
         d="m 167.37728,208.59821 c -3.8005,0.15499 -7.25931,3.327 -7.60579,7.11103 -0.3992,3.2621 1.40871,6.71535 4.42582,8.1222 2.6416,1.30923 6.02951,1.10332 8.39031,-0.70389 2.53464,-1.83685 3.89899,-5.22232 3.11173,-8.27292 -0.65468,-2.82825 -2.91769,-5.28519 -5.7854,-5.97429 -0.8254,-0.21877 -1.68319,-0.31121 -2.53667,-0.28213 z" />
      <path
         id="path6231"
         style="opacity:0.571;mix-blend-mode:normal;fill:url(#linearGradient6237);fill-opacity:1;stroke:none;stroke-width:0.636957;stroke-linecap:round;stroke-linejoin:round;stroke-miterlimit:4;stroke-dasharray:none;stroke-opacity:0.988235"
         d="m 167.77352,209.08337 c -3.39383,-0.0785 -6.52978,2.50858 -7.36497,5.72938 -0.87668,3.28966 0.87304,6.99098 3.88938,8.54865 2.3233,1.20816 5.25657,1.07628 7.49102,-0.27216 2.79918,-1.62823 4.20485,-5.18276 3.42062,-8.28721 -0.79223,-3.18132 -3.84971,-5.69337 -7.17152,-5.72089 -0.0881,-9e-4 -0.17637,0.002 -0.26453,0.002 z" />
    </g>
  </g>
</svg>
