<?xml version="1.0" encoding="UTF-8" standalone="no"?>
<svg
   xmlns:dc="http://purl.org/dc/elements/1.1/"
   xmlns:cc="http://creativecommons.org/ns#"
   xmlns:rdf="http://www.w3.org/1999/02/22-rdf-syntax-ns#"
   xmlns:svg="http://www.w3.org/2000/svg"
   xmlns="http://www.w3.org/2000/svg"
   xmlns:sodipodi="http://sodipodi.sourceforge.net/DTD/sodipodi-0.dtd"
   xmlns:inkscape="http://www.inkscape.org/namespaces/inkscape"
   sodipodi:docname="coffee.svg"
   inkscape:version="1.0 (4035a4fb49, 2020-05-01)"
   id="svg8"
   version="1.1"
   viewBox="0 0 210 297"
   height="297mm"
   width="210mm">
  <defs
     id="defs2" />
  <sodipodi:namedview
     inkscape:window-maximized="1"
     inkscape:window-y="-8"
     inkscape:window-x="-8"
     inkscape:window-height="1017"
     inkscape:window-width="1920"
     showgrid="false"
     inkscape:document-rotation="0"
     inkscape:current-layer="layer1"
     inkscape:document-units="mm"
     inkscape:cy="681.66447"
     inkscape:cx="99.423428"
     inkscape:zoom="0.98994949"
     inkscape:pageshadow="2"
     inkscape:pageopacity="0.0"
     borderopacity="1.0"
     bordercolor="#666666"
     pagecolor="#ffffff"
     id="base" />
  <metadata
     id="metadata5">
    <rdf:RDF>
      <cc:Work
         rdf:about="">
        <dc:format>image/svg+xml</dc:format>
        <dc:type
           rdf:resource="http://purl.org/dc/dcmitype/StillImage" />
        <dc:title />
      </cc:Work>
    </rdf:RDF>
  </metadata>
  <g
     id="layer1"
     inkscape:groupmode="layer"
     inkscape:label="Layer 1">
    <path
       sodipodi:nodetypes="csccc"
       d="m 61.457747,213.81589 c 3.252648,8.44443 15.899725,14.43222 30.482894,14.43219 14.429439,-4e-5 26.985299,-5.86492 30.388319,-14.19448 -2.14206,4.56099 -26.757809,7.64667 -33.19434,7.64667 -7.884451,0.26727 -24.068736,-5.07805 -27.676873,-7.88438 z"
       style="fill:#4d4d4d;fill-opacity:0.333333;stroke-width:0.264583"
       id="path27" />
    <path
       sodipodi:nodetypes="sccccccscccccscsccccccc"
       id="path12"
       style="fill:#cccccc;fill-rule:evenodd;stroke-width:0.263323"
       d="m 92.312195,120.57944 c -40.954998,0.0782 -74.029835,11.02544 -74.02907,24.50237 1.4e-4,0.35515 0.02375,0.71025 0.0708,1.06506 H 18.08262 c 3.982746,43.07053 36.185243,75.78723 74.595962,75.7871 18.953938,-1.3e-4 37.204928,-8.09086 51.082668,-22.64513 0.35602,0.29718 0.72384,0.57934 1.10278,0.84595 8.92066,6.27609 22.11648,2.88662 29.47365,-7.5706 7.35701,-10.45693 15.04338,-23.88795 6.12321,-30.16426 -1.91514,-1.34735 -13.04943,-2.41834 -15.39396,-2.90194 1.05204,-4.37646 1.79012,-8.84123 2.2071,-13.35112 h -0.13901 c 0.0471,-0.35481 0.0707,-0.70991 0.0708,-1.06506 8e-5,-13.53225 -33.33727,-24.50233 -74.461082,-24.50237 h -0.432533 z m 71.660225,45.66284 c 12.62603,0.57135 16.43937,1.15558 13.55327,10.52596 -2.53137,8.44116 -14.46857,21.97101 -20.56318,20.32896 -2.78597,-0.7507 -8.23839,-0.52769 -9.49211,-3.70376 5.36941,-7.38361 12.79801,-18.1446 15.69225,-27.11761 0.27144,-0.0235 0.54152,-0.0347 0.80977,-0.0336 z" />
    <path
       style="fill:none;stroke:#000000;stroke-width:0.264583px;stroke-linecap:butt;stroke-linejoin:miter;stroke-opacity:1"
       d="M 120.95238,132.48065 Z"
       id="path42" />
    <path
       style="fill:none;stroke:#000000;stroke-width:0.264583px;stroke-linecap:butt;stroke-linejoin:miter;stroke-opacity:1"
       d="M 120.95238,132.48065 Z"
       id="path44" />
    <path
       transform="scale(0.26458333)"
       d="M 581.24805 554.80469 C 579.86279 554.03448 578.69061 553.25146 577.17188 552.49023 C 573.58163 550.69061 569.62637 548.91827 565.34961 547.17969 C 561.07288 545.44114 556.47447 543.7375 551.5957 542.07617 C 546.71698 540.41484 541.55837 538.79641 536.16211 537.22852 C 530.76581 535.66058 525.13205 534.14392 519.30273 532.68555 C 513.47334 531.22722 507.44751 529.82676 501.26953 528.49414 C 495.09155 527.16152 488.76045 525.89578 482.31836 524.70508 C 475.87615 523.51434 469.32302 522.39788 462.70117 521.36523 C 456.07929 520.33259 449.38896 519.3838 442.67188 518.52539 C 435.95475 517.66698 429.21235 516.90042 422.48438 516.23242 C 415.7564 515.56443 409.04302 514.99461 402.38867 514.5332 C 395.73432 514.07176 389.13879 513.71723 382.64258 513.47852 C 376.14631 513.23965 369.74976 513.11681 363.49609 513.11719 C 357.24239 513.11749 350.76451 513.20763 344.11328 513.38867 C 337.46205 513.57009 330.63892 513.84314 323.69531 514.20703 C 316.75166 514.571 309.68752 515.026 302.55664 515.57422 C 295.42572 516.12244 288.22676 516.76372 281.01367 517.49805 C 273.80058 518.23233 266.57297 519.06037 259.38281 519.98242 C 252.19267 520.90448 245.0406 521.91973 237.97852 523.03125 C 230.91643 524.14277 223.94413 525.34965 217.11523 526.65234 C 210.28632 527.95503 203.59999 529.35401 197.10938 530.84961 C 190.61877 532.34517 184.32258 533.93679 178.27539 535.62695 C 172.2282 537.31712 166.43031 539.10575 160.93164 540.99219 C 155.43298 542.87866 150.23368 544.86477 145.38867 546.94922 C 140.54366 549.0337 136.05304 551.21584 131.9668 553.5 C 127.88055 555.7842 124.20087 558.16873 120.97852 560.6543 C 119.36734 561.89708 117.86965 563.16552 116.49414 564.45898 C 116.10299 564.82681 115.79727 565.21201 115.42578 565.58398 C 168.02923 606.57197 300.83706 642.56836 354.62891 642.56836 C 416.82798 642.56836 536.33395 603.34386 581.08008 556.81055 C 581.18772 556.14213 581.17922 555.47341 581.24805 554.80469 z "
       style="fill:#a05a2c;stroke:none;stroke-width:1.09002px;stroke-linecap:butt;stroke-linejoin:miter;stroke-opacity:1"
       id="path58" />
    <path
       transform="scale(0.26458333)"
       d="M 357.44727 489.88281 C 351.5241 489.88311 345.38952 489.97326 339.08984 490.1543 C 332.79017 490.33571 326.3266 490.60876 319.75 490.97266 C 313.17336 491.33662 306.48249 491.79162 299.72852 492.33984 C 292.9745 492.88806 286.15606 493.52935 279.32422 494.26367 C 272.49237 494.99796 265.64801 495.82599 258.83789 496.74805 C 252.02778 497.6701 245.25327 498.68535 238.56445 499.79688 C 231.87563 500.9084 225.27265 502.11528 218.80469 503.41797 C 212.33672 504.72066 206.00302 506.11964 199.85547 507.61523 C 193.70792 509.11079 187.74515 510.70241 182.01758 512.39258 C 176.29001 514.08275 170.79788 515.87137 165.58984 517.75781 C 160.38181 519.64429 155.45807 521.6304 150.86914 523.71484 C 146.28021 525.79933 142.02652 527.98147 138.15625 530.26562 C 134.28598 532.54982 130.80009 534.93435 127.74805 537.41992 C 126.22203 538.66271 124.80475 539.93114 123.50195 541.22461 C 122.19916 542.51808 121.01049 543.8373 119.94336 545.18164 C 118.87623 546.52598 117.93034 547.89558 117.11133 549.29102 C 116.29231 550.68649 115.59946 552.10792 115.04102 553.55469 C 114.48255 555.00145 114.05693 556.47438 113.77148 557.97266 C 113.48602 559.47094 113.3418 560.99486 113.3418 562.54492 C 113.3418 563.09231 113.48012 563.64296 113.52344 564.19141 C 114.10108 564.65915 114.82709 565.11749 115.42578 565.58398 C 115.79727 565.21201 116.10299 564.82681 116.49414 564.45898 C 117.86965 563.16552 119.36734 561.89708 120.97852 560.6543 C 124.20087 558.16873 127.88055 555.7842 131.9668 553.5 C 136.05304 551.21584 140.54366 549.0337 145.38867 546.94922 C 150.23368 544.86477 155.43298 542.87866 160.93164 540.99219 C 166.43031 539.10575 172.2282 537.31712 178.27539 535.62695 C 184.32258 533.93679 190.61877 532.34517 197.10938 530.84961 C 203.59999 529.35401 210.28632 527.95503 217.11523 526.65234 C 223.94413 525.34965 230.91643 524.14277 237.97852 523.03125 C 245.0406 521.91973 252.19267 520.90448 259.38281 519.98242 C 266.57297 519.06037 273.80058 518.23233 281.01367 517.49805 C 288.22676 516.76372 295.42572 516.12244 302.55664 515.57422 C 309.68752 515.026 316.75166 514.571 323.69531 514.20703 C 330.63892 513.84314 337.46205 513.57009 344.11328 513.38867 C 350.76451 513.20763 357.24239 513.11749 363.49609 513.11719 C 369.74976 513.11681 376.14631 513.23965 382.64258 513.47852 C 389.13879 513.71723 395.73432 514.07176 402.38867 514.5332 C 409.04302 514.99461 415.7564 515.56443 422.48438 516.23242 C 429.21235 516.90042 435.95475 517.66698 442.67188 518.52539 C 449.38896 519.3838 456.07929 520.33259 462.70117 521.36523 C 469.32302 522.39788 475.87615 523.51434 482.31836 524.70508 C 488.76045 525.89578 495.09155 527.16152 501.26953 528.49414 C 507.44751 529.82676 513.47334 531.22722 519.30273 532.68555 C 525.13205 534.14392 530.76581 535.66058 536.16211 537.22852 C 541.55837 538.79641 546.71698 540.41484 551.5957 542.07617 C 556.47447 543.7375 561.07288 545.44114 565.34961 547.17969 C 569.62637 548.91827 573.58163 550.69061 577.17188 552.49023 C 578.69061 553.25146 579.86279 554.03448 581.24805 554.80469 C 581.35782 553.73818 581.51367 552.6716 581.51367 551.60547 C 581.51367 550.66437 581.38623 549.72233 581.13867 548.7793 C 580.89111 547.8363 580.52217 546.89405 580.03711 545.95117 C 579.55204 545.00826 578.95087 544.06576 578.23828 543.125 C 577.52569 542.18424 576.70163 541.24524 575.77148 540.30859 C 573.91124 538.43538 571.62742 536.57109 568.95703 534.72656 C 566.28664 532.88204 563.23063 531.05544 559.83008 529.25586 C 556.42956 527.45624 552.68352 525.6839 548.63281 523.94531 C 544.58214 522.20677 540.22632 520.50313 535.60547 518.8418 C 530.98458 517.18047 526.09934 515.56204 520.98828 513.99414 C 515.87723 512.4262 510.54074 510.90954 505.01953 509.45117 C 499.49828 507.99284 493.79088 506.59239 487.93945 505.25977 C 482.08803 503.92714 476.09187 502.66141 469.99023 501.4707 C 463.88857 500.27996 457.68202 499.1635 451.41016 498.13086 C 445.13826 497.09822 438.80153 496.14942 432.43945 495.29102 C 426.07734 494.43261 419.69072 493.66604 413.31836 492.99805 C 406.946 492.33005 400.58775 491.76023 394.28516 491.29883 C 387.98253 490.83739 381.7349 490.48286 375.58203 490.24414 C 369.42915 490.00527 363.37039 489.88243 357.44727 489.88281 z "
       style="fill:#502d16;stroke:none;stroke-width:1.09002px;stroke-linecap:butt;stroke-linejoin:miter;stroke-opacity:1"
       id="path894" />
    <path
       transform="scale(0.26458333)"
       d="M 356.73047 456.61328 C 254.4202 456.61819 93.203125 480.91845 93.203125 533.19922 C 93.203125 543.5051 100.92024 553.98604 113.52344 564.19141 C 113.48014 563.64298 113.3418 563.09232 113.3418 562.54492 C 113.3418 560.99489 113.48603 559.47095 113.77148 557.97266 C 114.05693 556.47437 114.48256 555.00145 115.04102 553.55469 C 115.59947 552.10792 116.29231 550.68647 117.11133 549.29102 C 117.93034 547.89556 118.87623 546.52599 119.94336 545.18164 C 121.01049 543.83729 122.19916 542.51808 123.50195 541.22461 C 124.80475 539.93114 126.22203 538.66271 127.74805 537.41992 C 130.80009 534.93434 134.28598 532.5498 138.15625 530.26562 C 142.02652 527.98145 146.28021 525.79931 150.86914 523.71484 C 155.45807 521.63038 160.38181 519.64428 165.58984 517.75781 C 170.79788 515.87135 176.29001 514.08275 182.01758 512.39258 C 187.74515 510.70241 193.70792 509.11082 199.85547 507.61523 C 206.00302 506.11965 212.33672 504.72067 218.80469 503.41797 C 225.27265 502.11527 231.87563 500.9084 238.56445 499.79688 C 245.25327 498.68535 252.02778 497.6701 258.83789 496.74805 C 265.64801 495.82599 272.49237 494.99796 279.32422 494.26367 C 286.15607 493.52938 292.9745 492.88807 299.72852 492.33984 C 306.48253 491.79161 313.17337 491.33653 319.75 490.97266 C 326.32663 490.60878 332.79017 490.33553 339.08984 490.1543 C 345.38952 489.97307 351.52411 489.8831 357.44727 489.88281 C 363.37042 489.88259 369.42915 490.00546 375.58203 490.24414 C 381.73491 490.48283 387.98254 490.8374 394.28516 491.29883 C 400.58777 491.76026 406.946 492.33005 413.31836 492.99805 C 419.69071 493.66605 426.07735 494.43261 432.43945 495.29102 C 438.80156 496.14942 445.13828 497.09821 451.41016 498.13086 C 457.68203 499.16351 463.88859 500.27999 469.99023 501.4707 C 476.09188 502.66142 482.08802 503.92715 487.93945 505.25977 C 493.79089 506.59239 499.4983 507.99282 505.01953 509.45117 C 510.54076 510.90953 515.87724 512.42622 520.98828 513.99414 C 526.09932 515.56206 530.98461 517.18047 535.60547 518.8418 C 540.22633 520.50312 544.58212 522.20676 548.63281 523.94531 C 552.6835 525.68387 556.42955 527.45624 559.83008 529.25586 C 563.23061 531.05548 566.28665 532.88205 568.95703 534.72656 C 571.62741 536.57108 573.91124 538.43535 575.77148 540.30859 C 576.70161 541.24522 577.52569 542.18423 578.23828 543.125 C 578.95087 544.06577 579.55205 545.00827 580.03711 545.95117 C 580.52217 546.89407 580.89114 547.83629 581.13867 548.7793 C 581.3862 549.72231 581.51367 550.66437 581.51367 551.60547 C 581.51367 553.34009 581.35942 555.07615 581.08008 556.81055 C 592.07276 545.3788 598.62109 533.51164 598.62109 521.66992 C 598.62109 489.92771 459.04071 456.6095 356.73047 456.61328 z "
       style="fill:#808080;stroke:none;stroke-width:1.09002px;stroke-linecap:butt;stroke-linejoin:miter;stroke-opacity:1"
       id="path38" />
  </g>
</svg>
