<?xml version="1.0" encoding="UTF-8" standalone="no"?>
<svg
   xmlns:dc="http://purl.org/dc/elements/1.1/"
   xmlns:cc="http://creativecommons.org/ns#"
   xmlns:rdf="http://www.w3.org/1999/02/22-rdf-syntax-ns#"
   xmlns:svg="http://www.w3.org/2000/svg"
   xmlns="http://www.w3.org/2000/svg"
   xmlns:sodipodi="http://sodipodi.sourceforge.net/DTD/sodipodi-0.dtd"
   xmlns:inkscape="http://www.inkscape.org/namespaces/inkscape"
   sodipodi:docname="donut.svg"
   inkscape:version="1.0 (4035a4fb49, 2020-05-01)"
   id="svg903"
   version="1.1"
   viewBox="0 0 132.29167 132.29193"
   height="500"
   width="500">
  <defs
     id="defs897" />
  <sodipodi:namedview
     inkscape:snap-global="false"
     inkscape:window-maximized="1"
     inkscape:window-y="-8"
     inkscape:window-x="-8"
     inkscape:window-height="1017"
     inkscape:window-width="1920"
     showgrid="false"
     inkscape:document-rotation="0"
     inkscape:current-layer="layer1"
     inkscape:document-units="mm"
     inkscape:cy="286.42957"
     inkscape:cx="51.643389"
     inkscape:zoom="0.98994949"
     inkscape:pageshadow="2"
     inkscape:pageopacity="0"
     borderopacity="1.0"
     bordercolor="#666666"
     pagecolor="#282828"
     id="base"
     units="px" />
  <metadata
     id="metadata900">
    <rdf:RDF>
      <cc:Work
         rdf:about="">
        <dc:format>image/svg+xml</dc:format>
        <dc:type
           rdf:resource="http://purl.org/dc/dcmitype/StillImage" />
        <dc:title></dc:title>
      </cc:Work>
    </rdf:RDF>
  </metadata>
  <g
     id="layer1"
     inkscape:groupmode="layer"
     inkscape:label="Layer 1"
     style="display:inline">
    <path
       d="M 66.198352,7.1446302 A 59.77845,62.794857 0 0 0 6.4197966,69.939593 59.77845,62.794857 0 0 0 66.198352,132.73456 59.77845,62.794857 0 0 0 125.97691,69.939593 59.77845,62.794857 0 0 0 118.59285,39.707252 11.423658,7.0995482 6.6103714 0 1 112.17927,36.57143 11.423658,7.0995482 6.6103714 0 1 110.20704,33.697578 20.977866,12.727428 1.4229985 0 1 90.868213,27.820362 20.977866,12.727428 1.4229985 0 1 90.178892,14.271368 12.217733,7.6278597 9.1471494 0 1 83.566356,10.875534 12.217733,7.6278597 9.1471494 0 1 82.298398,9.4651004 59.77845,62.794857 0 0 0 66.198352,7.1446302 Z m 1.111974,41.4333928 a 21.949264,21.531001 0 0 1 0.01774,0 A 21.949264,21.531001 0 0 1 89.277073,70.108845 21.949264,21.531001 0 0 1 67.328068,91.640158 21.949264,21.531001 0 0 1 45.378598,70.108845 21.949264,21.531001 0 0 1 67.310321,48.578023 Z"
       style="fill:#502d16;stroke-width:0.231578"
       id="path1466" />
    <path
       d="m 24.734451,69.690867 c -2.454528,-0.07919 -3.597856,1.713602 -4.235404,4.245527 0.78742,9.559928 4.235926,18.92389 10.044665,26.330716 5.187285,6.73376 12.168877,11.95814 19.889447,14.93097 9.820196,3.76701 21.033458,3.9187 30.950813,0.2134 8.60482,-3.17768 16.306619,-9.0907 21.689808,-16.803533 4.27454,-6.030712 7.1266,-13.164348 8.33724,-20.549161 -1.01433,-1.391065 -2.33746,-2.35555 -4.25782,-2.448024 -2.36994,-0.114121 -3.90899,1.530946 -5.28246,3.733848 -1.30138,5.108446 -3.669346,9.905582 -7.050603,13.857573 -9.075276,11.011857 -24.449546,15.629767 -37.722135,11.497367 -7.81976,-2.31817 -14.850784,-7.570394 -19.524705,-14.546847 -0.133016,0.008 -0.267289,0.01434 -0.403039,0.01718 C 27.560144,90.369713 32.703067,69.94797 24.734451,69.69088 Z"
       style="opacity:0.365385;fill:#784421;stroke-width:0.231578"
       id="path1105" />
    <g
       style="fill:#180e07;fill-opacity:1"
       transform="matrix(0.23911422,0,0,0.25117985,6.2838938,6.350372)"
       id="g956">
      <path
         d="m 251.17383,-23.519531 c -1.36356,-0.0025 -2.72615,0.0052 -4.08789,0.02344 -82.4006,0.855346 -163.390478,40.480202 -213.976565,105.707032 -0.004,0.0051 -0.0077,0.01051 -0.01172,0.01562 -37.7412534,47.821949 -58.75644,108.312659 -59.207031,169.152349 a 6.6673332,6.6673332 0 0 0 0,0.0547 c 0.01698,22.07576 2.502265,42.68225 11.320313,58.80079 8.8180445,16.11853 24.871823,27.03387 47.908203,27.76953 5.749012,0.18359 11.046642,-1.41548 15.074218,-4.45703 4.027577,-3.04159 6.684631,-7.21403 8.550782,-11.65626 3.7323,-8.88443 4.754719,-19.31913 5.84375,-29.3789 1.089031,-10.05977 2.237275,-19.76106 4.59375,-25.8418 1.178237,-3.04037 2.564126,-5.0417 3.958984,-6.17187 1.394858,-1.13017 2.849882,-1.75518 5.816406,-1.66407 2.80125,0.086 4.378637,0.80701 5.996094,2.20704 1.617457,1.40002 3.211203,3.74095 4.607422,7.02343 2.792439,6.56497 4.554713,16.51076 6.478515,26.78125 1.923805,10.27049 3.985628,20.92032 8.900389,29.82032 4.91477,8.89999 14.08104,15.94429 26.36328,15.70117 19.15311,-0.37913 33.4345,-11.71184 42.64844,-27.81641 9.21394,-16.10457 14.46394,-37.11769 18.25195,-60.03516 a 6.6673332,6.6673332 0 0 0 0.084,-0.83007 c 0.238,-6.16722 1.5217,-12.2674 3.73437,-17.73633 a 6.6673332,6.6673332 0 0 0 0.0274,-0.0664 c 6.9517,-17.72837 23.45556,-31.33699 42,-36.35742 a 6.6673332,6.6673332 0 0 0 0.0703,-0.0195 c 6.25065,-1.76653 12.7472,-2.67879 19.25781,-2.7207 11.75078,-0.0243 22.74774,2.82458 33.20117,8.42968 13.14034,7.12691 23.60094,18.41468 28.57422,32.20118 a 6.6673332,6.6673332 0 0 0 0.008,0.0215 c 1.85995,5.10121 2.8735,10.51877 3.09765,15.99414 -0.55552,12.74867 -5.70584,32.46814 -4.6914,50.35938 0.51037,9.0012 2.71609,17.98391 8.875,24.98632 6.1589,7.00242 15.90057,11.19799 28.86523,11.81836 11.63398,0.55671 21.14654,-3.6543 28.13477,-9.82226 6.98822,-6.16796 11.79897,-14.00187 16.08398,-21.36719 4.28501,-7.36532 8.09738,-14.32324 11.99219,-18.81445 3.8948,-4.49122 6.97287,-6.42489 12.02344,-6.19336 6.1184,0.28047 9.45933,2.69173 12.92968,7.28125 3.47036,4.58952 6.34039,11.44333 9.22266,18.67578 2.88227,7.23245 5.74429,14.83885 10.61328,21.17578 4.869,6.33693 12.79129,11.2001 22.48047,10.57813 12.08666,-0.77588 24.02351,-9.81085 33.57812,-24.8125 9.55462,-15.00167 16.50855,-36.45101 16.78321,-63.80274 a 6.6673332,6.6673332 0 0 0 0,-0.10547 c -0.23712,-39.50361 -8.8235,-78.96028 -25.73828,-114.79297 -0.002,-0.004 -0.002,-0.008 -0.004,-0.0117 -0.3878,-0.83595 -0.79513,-1.66225 -1.19141,-2.49414 A 50.548306,29.053836 1.9423526 0 1 432.87891,123.72266 50.548306,29.053836 1.9423526 0 1 424.95117,112.18945 51.687816,93.537966 87.855974 0 1 340.49609,89.808594 51.687816,93.537966 87.855974 0 1 341.5,34.763672 53.83444,31.347815 4.0227531 0 1 313.04102,21.472656 a 53.83444,31.347815 4.0227531 0 1 1.60937,-37.390625 c -20.76354,-4.971043 -42.09814,-7.563234 -63.47656,-7.601562 z"
         style="color:#000000;font-style:normal;font-variant:normal;font-weight:normal;font-stretch:normal;font-size:medium;line-height:normal;font-family:sans-serif;font-variant-ligatures:normal;font-variant-position:normal;font-variant-caps:normal;font-variant-numeric:normal;font-variant-alternates:normal;font-variant-east-asian:normal;font-feature-settings:normal;font-variation-settings:normal;text-indent:0;text-align:start;text-decoration:none;text-decoration-line:none;text-decoration-style:solid;text-decoration-color:#000000;letter-spacing:normal;word-spacing:normal;text-transform:none;writing-mode:lr-tb;direction:ltr;text-orientation:mixed;dominant-baseline:auto;baseline-shift:baseline;text-anchor:start;white-space:normal;shape-padding:0;shape-margin:0;inline-size:0;clip-rule:nonzero;display:inline;overflow:visible;visibility:visible;isolation:auto;mix-blend-mode:normal;color-interpolation:sRGB;color-interpolation-filters:linearRGB;solid-color:#000000;solid-opacity:1;vector-effect:none;fill:#180e07;fill-opacity:1;fill-rule:nonzero;stroke:none;stroke-width:13.3333;stroke-linecap:round;stroke-linejoin:round;stroke-miterlimit:4;stroke-dasharray:none;stroke-dashoffset:0;stroke-opacity:1;color-rendering:auto;image-rendering:auto;shape-rendering:auto;text-rendering:auto;enable-background:accumulate;stop-color:#000000;stop-opacity:1"
         id="path964" />
    </g>
    <path
       d="m 66.340326,2.1171084 c -0.317728,-6.029e-4 -0.635441,0.00141 -0.953188,0.00589 C 46.179649,2.330788 27.233652,12.071893 15.451963,28.037694 c -8.7989807,11.71 -13.7121657,26.561207 -13.8172528,41.46626 0.00792,10.822566 2.4822567,19.732254 12.6193458,20.072311 8.629789,0.289495 2.305179,-20.149157 10.480395,-19.885396 7.968616,0.25709 2.825693,20.678833 12.435807,20.479005 8.011558,-0.166588 11.237331,-9.330332 13.020984,-20.66592 0.06381,-1.736954 0.405777,-3.453841 1.008297,-5.0182 1.870084,-5.009772 6.211843,-8.744387 11.110404,-10.137463 1.635592,-0.485568 3.331693,-0.734972 5.031207,-0.74618 3.075856,-0.0073 5.986158,0.786706 8.703383,2.318019 3.451623,1.965723 6.237904,5.101462 7.574598,8.993906 0.511465,1.473559 0.788091,3.027217 0.842504,4.589918 -0.26511,7.083565 -4.873841,19.656795 6.379025,20.222431 9.55257,0.480173 9.32751,-14.451979 16.31254,-14.115621 7.76291,0.373813 5.77221,14.98704 13.035,14.497297 4.15664,-0.280292 10.42436,-7.414829 10.55044,-20.604107 -0.0554,-9.687364 -2.06174,-19.362011 -6.00307,-28.131651 -0.11289,-0.255739 -0.23055,-0.509157 -0.34653,-0.763354 A 7.4464866,12.647894 88.936724 0 1 107.83458,38.19478 7.4464866,12.647894 88.936724 0 1 105.99919,35.274321 13.182318,23.520355 84.950875 0 1 85.136478,29.915165 13.182318,23.520355 84.950875 0 1 86.102743,15.803469 13.436931,8.0542839 1.0347883 0 1 79.146946,12.524394 13.436931,8.0542839 1.0347883 0 1 79.264636,3.5368657 C 75.016884,2.6077666 70.680897,2.125283 66.340326,2.1171084 Z"
       style="display:inline;fill:#28170b;stroke-width:0.231578"
       id="path1466-3" />
    <path
       d="m 66.120826,21.250439 c -0.332641,0.0013 -0.664895,0.0066 -0.997553,0.0157 -0.307994,0.0059 -0.616241,0.01176 -0.924234,0.01766 -13.257597,0.613952 -26.2125,7.423521 -34.367065,18.468589 -6.304333,8.417285 -9.934603,19.051039 -9.986755,29.766773 1.540158,-1.974158 4.231931,-2.886197 6.567702,-2.078121 2.277316,0.698556 3.946002,2.790889 4.645449,5.115828 1.54957,4.152568 1.445885,8.778115 3.123429,12.884742 0.431405,1.063616 1.277915,2.032804 2.402816,2.181143 -0.908687,-1.601779 -1.69719,-3.279208 -2.342105,-5.022615 -3.916282,-10.262432 -2.518494,-22.48731 3.301833,-31.70606 3.368687,-5.292016 8.18488,-9.54328 13.56506,-12.359815 4.077957,-2.121962 8.441442,-3.438921 12.998101,-3.874155 1.053587,-0.103501 2.048876,-0.144401 3.118759,-0.152082 3.227863,-0.02904 6.480644,0.442408 9.507593,1.314771 9.920595,2.849497 18.752786,10.22301 23.020346,20.133142 2.295938,5.295537 3.150498,11.226202 2.694708,17.01155 -0.056,0.675465 -0.1328,1.36362 -0.22837,2.057515 0.16452,-0.15311 0.33277,-0.303099 0.50905,-0.446432 2.63463,-2.133055 6.62097,-1.908259 9.11436,0.364015 0.14283,0.121633 0.27864,0.24858 0.41191,0.377749 0.57283,-5.349144 0.31365,-10.794522 -0.83457,-16.049508 C 109.61052,50.690287 105.5062,42.676022 99.738791,36.32123 A 13.361816,24.912244 82.442674 0 1 82.161093,31.082266 13.361816,24.912244 82.442674 0 1 79.419221,23.289313 C 75.111624,21.936619 70.620432,21.233457 66.120826,21.250439 Z"
       style="opacity:0.217949;fill:#f2f2f2;stroke-width:0.231578"
       id="path1001" />
    <rect
       style="fill:#008000;fill-opacity:1;stroke:none;stroke-width:0.0763804;stroke-linecap:round;stroke-linejoin:round;stroke-miterlimit:4;stroke-dasharray:none;stroke-opacity:1"
       id="rect1191"
       width="16.839876"
       height="7.0367479"
       x="30.591509"
       y="50.826019"
       ry="3.518374"
       transform="matrix(0.88395872,0.46756494,-0.43225337,0.9017522,0,0)" />
    <rect
       style="fill:#d35fbc;fill-opacity:1;stroke:none;stroke-width:0.0763812;stroke-linecap:round;stroke-linejoin:round;stroke-miterlimit:4;stroke-dasharray:none;stroke-opacity:1"
       id="rect1193"
       width="16.846174"
       height="7.0342655"
       x="-11.071979"
       y="45.952381"
       ry="3.5171328"
       transform="matrix(0.87953094,-0.4758417,0.44022486,0.89788756,0,0)" />
    <rect
       style="fill:#008000;fill-opacity:1;stroke:none;stroke-width:0.0763804;stroke-linecap:round;stroke-linejoin:round;stroke-miterlimit:4;stroke-dasharray:none;stroke-opacity:1"
       id="rect1195"
       width="16.839876"
       height="7.0367479"
       x="35.05658"
       y="7.4301872"
       ry="3.518374"
       transform="matrix(0.88395872,0.46756494,-0.43225337,0.9017522,0,0)" />
    <rect
       style="fill:#ffd42a;fill-opacity:1;stroke:none;stroke-width:0.0763804;stroke-linecap:round;stroke-linejoin:round;stroke-miterlimit:4;stroke-dasharray:none;stroke-opacity:1"
       id="rect1197"
       width="16.839876"
       height="7.0367479"
       x="49.618164"
       y="-15.877063"
       ry="3.518374"
       transform="matrix(0.88395872,0.46756494,-0.43225337,0.9017522,0,0)" />
    <rect
       style="fill:#ff55dd;fill-opacity:1;stroke:none;stroke-width:0.0763804;stroke-linecap:round;stroke-linejoin:round;stroke-miterlimit:4;stroke-dasharray:none;stroke-opacity:1"
       id="rect1199"
       width="16.839876"
       height="7.0367479"
       x="53.995983"
       y="28.279783"
       ry="3.518374"
       transform="matrix(0.88395872,0.46756494,-0.43225337,0.9017522,0,0)" />
    <rect
       style="fill:#0055d4;fill-opacity:1;stroke:none;stroke-width:0.0763821;stroke-linecap:round;stroke-linejoin:round;stroke-miterlimit:4;stroke-dasharray:none;stroke-opacity:1"
       id="rect1201"
       width="17.327547"
       height="6.8390059"
       x="59.620396"
       y="-44.45401"
       ry="3.419503"
       transform="matrix(0.44904894,0.89350716,-0.87452385,0.48498251,0,0)" />
    <rect
       style="fill:#008000;fill-opacity:1;stroke:none;stroke-width:0.0763813;stroke-linecap:round;stroke-linejoin:round;stroke-miterlimit:4;stroke-dasharray:none;stroke-opacity:1"
       id="rect1203"
       width="16.846586"
       height="7.0341029"
       x="53.432388"
       y="90.938904"
       ry="3.5170515"
       transform="matrix(0.87924096,-0.47637731,0.4407413,0.89763417,0,0)" />
    <rect
       style="fill:#0055d4;fill-opacity:1;stroke:none;stroke-width:0.0763881;stroke-linecap:round;stroke-linejoin:round;stroke-miterlimit:4;stroke-dasharray:none;stroke-opacity:1"
       id="rect1205"
       width="17.274294"
       height="6.8611536"
       x="104.45691"
       y="-80.818718"
       ry="3.4305768"
       transform="matrix(0.51241805,0.85873613,-0.8352037,0.54994071,0,0)" />
    <rect
       style="fill:#008000;fill-opacity:1;stroke:none;stroke-width:0.0763944;stroke-linecap:round;stroke-linejoin:round;stroke-miterlimit:4;stroke-dasharray:none;stroke-opacity:1"
       id="rect1207"
       width="17.187458"
       height="6.8969707"
       x="110.07986"
       y="-37.228996"
       ry="3.4484854"
       transform="matrix(0.60261018,0.79803569,-0.7682545,0.64014453,0,0)" />
    <rect
       style="fill:#008000;fill-opacity:1;stroke:none;stroke-width:0.0763804;stroke-linecap:round;stroke-linejoin:round;stroke-miterlimit:4;stroke-dasharray:none;stroke-opacity:1"
       id="rect1209"
       width="16.839876"
       height="7.0367479"
       x="134.59325"
       y="5.9043541"
       ry="3.518374"
       transform="matrix(0.88395872,0.46756494,-0.43225337,0.9017522,0,0)" />
    <rect
       transform="matrix(0.88395872,0.46756494,-0.43225337,0.9017522,0,0)"
       ry="3.518374"
       y="5.9043541"
       x="134.59325"
       height="7.0367479"
       width="16.839876"
       id="rect1185"
       style="fill:#ffcc00;fill-opacity:1;stroke:none;stroke-width:0.0763804;stroke-linecap:round;stroke-linejoin:round;stroke-miterlimit:4;stroke-dasharray:none;stroke-opacity:1" />
  </g>
</svg>
