<?xml version="1.0" encoding="UTF-8"?>
<svg id="svg28" width="443.37" height="529.01" version="1.1" viewBox="0 0 117.31 139.97" xmlns="http://www.w3.org/2000/svg" xmlns:cc="http://creativecommons.org/ns#" xmlns:dc="http://purl.org/dc/elements/1.1/" xmlns:rdf="http://www.w3.org/1999/02/22-rdf-syntax-ns#">
 <metadata id="metadata2">
  <rdf:RDF>
   <cc:Work rdf:about="">
    <dc:format>image/svg+xml</dc:format>
    <dc:type rdf:resource="http://purl.org/dc/dcmitype/StillImage"/>
    <dc:title/>
   </cc:Work>
  </rdf:RDF>
 </metadata>
 <g id="g26" transform="translate(-50.257,-33.21)">
  <path id="path4" d="m102.52 134.08c-9.2482 0.51092-22.196-10.998-27.423-3.1847-6.1919 10.183-16.565 28.882-22.636 39.136-1.2395 3.2438 5.7483 2.0064 9.1091 1.6994 3.2519-0.11559 6.5172-0.0351 9.7744-0.0695 28.805-0.0117 57.611 0.0359 86.415-0.0623 3.431-0.53264 9.9698 1.9903 8.0044-0.7575-9.1402-15.588-17.133-30.835-26.247-45.714-25.528 1.0872-12.736 9.425-36.997 8.9526z" fill="#407aff" stroke="#415cfe" stroke-linecap="round" stroke-linejoin="round" stroke-opacity=".99608" stroke-width="1.7639"/>
  <g fill-opacity=".99216">
   <g id="g10" transform="matrix(.44943 0 0 .4799 62.793 110.46)">
    <g id="bubble0">
     <ellipse id="ellipse6" cx="29.266" cy="90.471" rx="17.506" ry="16.17" fill="#dee8fe"/>
     <path id="path8" d="m27.305 77.136a12.154 11.894 0 0 0-12.144 11.894 12.154 11.894 0 0 0 3.7681 8.6093 12.596 12.789 0 0 1-1.0422-5.0936 12.596 12.789 0 0 1 12.596-12.789 12.596 12.789 0 0 1 6.1353 1.6201 12.154 11.894 0 0 0-9.3028-4.2402 12.154 11.894 0 0 0-0.01009 0z" fill="#fff"/>
    </g>
   </g>
   <g id="g16" transform="matrix(.44943 0 0 .4799 85.85 117.64)">
    <g id="bubble1">
     <ellipse id="ellipse12" cx="29.266" cy="90.471" rx="17.506" ry="16.17" fill="#dee8fe"/>
     <path id="path14" d="m27.305 77.136a12.154 11.894 0 0 0-12.144 11.894 12.154 11.894 0 0 0 3.7681 8.6093 12.596 12.789 0 0 1-1.0422-5.0936 12.596 12.789 0 0 1 12.596-12.789 12.596 12.789 0 0 1 6.1353 1.6201 12.154 11.894 0 0 0-9.3028-4.2402 12.154 11.894 0 0 0-0.01009 0z" fill="#fff"/>
    </g>
   </g>
   <g id="g22" transform="matrix(.44943 0 0 .4799 123.08 110.84)">
    <g id="bubble2">
     <ellipse id="ellipse18" cx="29.266" cy="90.471" rx="17.506" ry="16.17" fill="#dee8fe"/>
     <path id="path20" d="m27.305 77.136a12.154 11.894 0 0 0-12.144 11.894 12.154 11.894 0 0 0 3.7681 8.6093 12.596 12.789 0 0 1-1.0422-5.0936 12.596 12.789 0 0 1 12.596-12.789 12.596 12.789 0 0 1 6.1353 1.6201 12.154 11.894 0 0 0-9.3028-4.2402 12.154 11.894 0 0 0-0.01009 0z" fill="#fff"/>
    </g>
   </g>
  </g>
  <path id="path24" transform="scale(.26458)" d="m282.68 129.3c-7.1831 0-12.965 5.7837-12.965 12.967v46.799c0 7.1831 5.7817 12.967 12.965 12.967l39.562 12.965v214.48l-128.51 221.23 435.81 0.0312-125.47-221.27v-214.48s0.16574-0.33793 31.48-12.965c7.1831 0 12.967-5.7837 12.967-12.967v-46.799c0-7.1831-5.7837-12.967-12.967-12.967z" fill="#f9f9f9" fill-opacity=".17647" stroke="#000" stroke-linecap="round" stroke-linejoin="round" stroke-width="7.5591"/>
 </g>
</svg>
