<svg id="svg8" width="142.1mm" height="142.1mm" version="1.1" viewBox="0 0 142.1 142.1" xmlns="http://www.w3.org/2000/svg">
 <g id="layer1" transform="translate(-37.271 -78.425)">
  <g id="g49">
   <path id="loadingSpinner" transform="matrix(.26458 0 0 .26458 37.271 78.425)" d="m246.52 0.9043a268.53 268.53 0 0 0-151.66 62.82l24.334 24.334c36.033-29.531 80.939-48.349 127.33-52.859zm44.02 0v34.406c1.7305 0.1698 3.4593 0.35168 5.1856 0.56055 44.696 4.9247 87.586 23.523 122.21 52.129l24.273-24.273a268.53 268.53 0 0 0-151.66-62.822zm-226.81 93.949a268.53 268.53 0 0 0-62.822 151.66h34.375c3.83-39.461 17.554-78.002 40.113-110.64 3.9209-5.804 8.1327-11.392 12.582-16.777zm409.6 0-24.24 24.24c29.798 35.908 48.306 80.975 52.695 127.42h34.367a268.53 268.53 0 0 0-62.822-151.66zm-472.43 195.68a268.53 268.53 0 0 0 62.822 151.66l24.299-24.299c-21.66-26.287-37.689-57.244-46.244-90.227-3.2702-12.18-5.4659-24.613-6.627-37.139zm500.96 0c-4.1034 43.271-20.516 85.344-46.875 119.93-1.9087 2.5437-3.8752 5.0417-5.8906 7.498l24.234 24.234a268.53 268.53 0 0 0 62.82-151.66zm-83.887 158.56c-27.291 22.501-59.728 38.79-94.119 47.107-10.954 2.7181-22.099 4.5889-33.318 5.6367v34.305a268.53 268.53 0 0 0 151.66-62.822zm-298.9 4e-3 -24.225 24.225a268.53 268.53 0 0 0 151.66 62.82v-34.375c-33.651-3.2122-66.631-13.612-95.836-30.678-11.164-6.4016-21.724-13.789-31.604-21.992z" fill="#f60" fill-opacity=".99216" stroke-linecap="round" stroke-linejoin="round" stroke-opacity=".98824" stroke-width="3.2103"/>
  </g>
  <path id="path15" d="m105.61 97.62c-7.5866 0.42801-15.233 2.6387-21.925 6.2391-3.1754 1.712-6.1441 3.7081-8.8609 5.9844-3.1364 2.5939-6.0198 5.6954-8.4133 8.9719-5.6584 7.7636-9.1769 17.26-9.8633 26.857-0.70998 9.5044 1.2467 19.322 5.7581 27.808 2.5167 4.7901 5.7563 9.1827 9.5635 12.957 4.0763 4.0427 8.6759 7.3073 13.841 9.7765 5.3506 2.5602 11.032 4.1726 16.937 4.8477 7.5996 0.85154 15.329 7e-3 22.566-2.5097 11.072-3.7911 20.905-11.441 27.064-21.462 6.0776-9.7653 8.907-21.44 7.6848-32.838-0.45753-4.4604-1.5078-8.8302-3.0854-13.07-3.7032-9.9764-10.678-18.928-19.664-24.823-6.2554-4.1864-13.464-7.015-20.85-8.1718-3.5617-0.54852-7.1467-0.72745-10.752-0.56645z" fill="#f60" fill-opacity=".99216" stroke-linecap="round" stroke-linejoin="round" stroke-opacity=".98824" stroke-width=".84938"/>
  <g fill="#f9f9f9" fill-opacity=".99216" stroke-linecap="round" stroke-linejoin="round" stroke-opacity=".98824" stroke-width=".81794">
   <rect id="loadingWave0" x="64.448" y="133.75" width="8.9295" height="31.447" rx="4.4648" ry="4.1872" opacity=".571"/>
   <rect id="loadingWave1" x="84.151" y="133.75" width="8.9295" height="31.447" rx="4.4648" ry="4.3866" opacity=".571"/>
   <rect id="loadingWave2" x="103.85" y="133.75" width="8.9295" height="31.447" rx="4.4648" ry="4.2869" opacity=".571"/>
   <rect id="loadingWave3" x="123.56" y="133.75" width="8.9295" height="31.447" rx="4.4648" ry="4.7854" opacity=".571"/>
   <rect id="loadingWave4" x="143.26" y="133.75" width="8.9295" height="31.447" rx="4.4648" ry="3.9878" opacity=".571"/>
  </g>
 </g>
</svg>
