<?xml version="1.0" encoding="UTF-8" standalone="no"?>
<svg
   xmlns:dc="http://purl.org/dc/elements/1.1/"
   xmlns:cc="http://creativecommons.org/ns#"
   xmlns:rdf="http://www.w3.org/1999/02/22-rdf-syntax-ns#"
   xmlns:svg="http://www.w3.org/2000/svg"
   xmlns="http://www.w3.org/2000/svg"
   xmlns:sodipodi="http://sodipodi.sourceforge.net/DTD/sodipodi-0.dtd"
   xmlns:inkscape="http://www.inkscape.org/namespaces/inkscape"
   inkscape:export-ydpi="96"
   inkscape:export-xdpi="96"
   inkscape:export-filename="D:\InkScape Art\svg_fun\arts\MyLogo.png"
   width="300.00079"
   height="278.38101"
   viewBox="0 0 79.375204 73.654971"
   version="1.1"
   id="svg851"
   inkscape:version="1.0 (4035a4fb49, 2020-05-01)"
   sodipodi:docname="MyLogo.svg">
  <defs
     id="defs845" />
  <sodipodi:namedview
     id="base"
     pagecolor="#ffffff"
     bordercolor="#666666"
     borderopacity="1.0"
     inkscape:pageopacity="0.0"
     inkscape:pageshadow="2"
     inkscape:zoom="1.1497469"
     inkscape:cx="76.244853"
     inkscape:cy="240.47355"
     inkscape:document-units="px"
     inkscape:current-layer="layer1"
     inkscape:document-rotation="0"
     showgrid="false"
     fit-margin-top="0"
     fit-margin-left="0"
     fit-margin-right="0"
     fit-margin-bottom="0"
     units="mm"
     inkscape:window-width="1920"
     inkscape:window-height="1017"
     inkscape:window-x="-8"
     inkscape:window-y="-8"
     inkscape:window-maximized="1" />
  <metadata
     id="metadata848">
    <rdf:RDF>
      <cc:Work
         rdf:about="">
        <dc:format>image/svg+xml</dc:format>
        <dc:type
           rdf:resource="http://purl.org/dc/dcmitype/StillImage" />
        <dc:title></dc:title>
      </cc:Work>
    </rdf:RDF>
  </metadata>
  <g
     inkscape:label="Layer 1"
     id="layer1"
     transform="translate(-35.533759,-65.234621)"
     style="display:inline;opacity:0.754839">
    <path
       sodipodi:nodetypes="ccccccccccccccccccccccccccc"
       transform="matrix(0.26458331,0,0,0.26458331,35.329849,65.224327)"
       d="M 150.98242,0.0390625 C 149.95241,0.03756824 148.92241,0.04668331 147.89258,0.06640625 65.439799,1.6488879 -0.27142067,69.495814 0.78320312,151.95703 1.4516962,204.23394 29.291136,251.23504 74.259766,277.90234 L 74.678599,278.52657 106.56944,278.3597 128.8418,241.4043 150.89062,204.77148 172.59961,241.59375 194.22656,278.43109 226.8418,278.41992 226.53711,277.90234 H 226.8418 C 266.91766,244.0985 299.84307,196.38825 300.77148,150.03711 L 300.72266,146.20117 C 298.64347,64.961845 232.24827,0.15319112 150.98242,0.0390625 Z M 150.3457,33.054688 C 213.95312,32.823553 266.08925,83.457913 267.7168,147.04492 L 267.75586,150.03711 C 267.75604,192.81669 244.7821,230.25393 210.47266,250.6543 L 188.99219,214.2207 151.14258,150.02148 112.70117,213.88867 90.705078,250.43555 C 57.047133,230.25653 34.335708,193.62386 33.796875,151.53516 32.974277,87.223748 84.22252,34.31005 148.52734,33.076172 149.1334,33.0643 149.73953,33.057136 150.3457,33.054688 Z"
       inkscape:label="ring"
       style="display:inline;opacity:1;fill:#000000;fill-opacity:1;stroke-width:32.5039;stroke-linecap:round;stroke-linejoin:round"
       id="path1418" />
  </g>
</svg>
