<svg id="svg8" width="299.02mm" height="159.34mm" version="1.1" viewBox="0 0 299.02 159.34" xmlns="http://www.w3.org/2000/svg">
 <defs id="defs2">
  <filter id="filter2867" x="-.025669" y="-.056392" width="1.0513" height="1.1128" color-interpolation-filters="sRGB">
   <feGaussianBlur id="feGaussianBlur2869" stdDeviation="2.7702927"/>
  </filter>
  <filter id="filter862" x="-.11035" y="-.089617" width="1.2207" height="1.1792" color-interpolation-filters="sRGB">
   <feGaussianBlur id="feGaussianBlur864" stdDeviation="1.9283144"/>
  </filter>
  <filter id="filter868" x="-.16413" y="-.22251" width="1.3283" height="1.445" color-interpolation-filters="sRGB">
   <feGaussianBlur id="feGaussianBlur870" stdDeviation="2.1235207"/>
  </filter>
 </defs>
 <g id="layer2" transform="translate(130.82 -38.08)">
  <rect id="rect25" x="-130.82" y="38.08" width="299.02" height="159.34" rx="0" ry="0" fill="#501644"/>
 </g>
 <g id="layer1" transform="translate(130.82 -38.08)" shape-rendering="auto">
  <g id="shadows">
   <path id="path2895" d="m-26.888 110.73a3.1035 2.9969 72.75 0 0-2.359 3.5913l2.4224 12.529a3.1035 2.9969 72.75 0 0 3.5367 2.4996l22.614-4.1873a3.1032 2.9966 72.75 0 0 2.359-3.5913 3.1032 2.9966 72.75 0 0-3.5367-2.4996l-19.666 3.6415-1.2448-6.4379 19.666-3.6415a3.1032 2.9966 72.75 0 0 2.359-3.5913 3.1032 2.9966 72.75 0 0-3.5367-2.4996z" color="#000000" color-rendering="auto" dominant-baseline="auto" fill-opacity=".53" image-rendering="auto" solid-color="#000000" stop-color="#000000" style="font-feature-settings:normal;font-variant-alternates:normal;font-variant-caps:normal;font-variant-east-asian:normal;font-variant-ligatures:normal;font-variant-numeric:normal;font-variant-position:normal;font-variation-settings:normal;inline-size:0;isolation:auto;mix-blend-mode:normal;shape-margin:0;shape-padding:0;text-decoration-color:#000000;text-decoration-line:none;text-decoration-style:solid;text-indent:0;text-orientation:mixed;text-transform:none;white-space:pre"/>
   <path id="path2899" d="m94.363 95.46a3.1035 2.9969 72.75 0 0-2.3537 3.5882l8.7888 45.456a3.1032 2.9966 72.75 0 0 3.5367 2.4996 3.1032 2.9966 72.75 0 0 2.359-3.5913l-6.7118-34.713 28.7 32.297a3.1032 2.9966 72.75 0 0 4.2492 0.2421 3.1032 2.9966 72.75 0 0 0.15148-4.3675l-35.926-40.431a3.1035 2.9969 72.75 0 0-2.7936-0.97987z" color="#000000" color-rendering="auto" dominant-baseline="auto" fill-opacity=".53" image-rendering="auto" solid-color="#000000" stop-color="#000000" style="font-feature-settings:normal;font-variant-alternates:normal;font-variant-caps:normal;font-variant-east-asian:normal;font-variant-ligatures:normal;font-variant-numeric:normal;font-variant-position:normal;font-variation-settings:normal;inline-size:0;isolation:auto;mix-blend-mode:normal;shape-margin:0;shape-padding:0;text-decoration-color:#000000;text-decoration-line:none;text-decoration-style:solid;text-indent:0;text-orientation:mixed;text-transform:none;white-space:pre"/>
   <path id="path2903" d="m33.734 84.791c-6.4683 1.1977-12.26 4.1579-17.155 8.7362-4.8678 4.5379-8.3412 10.184-10.336 16.748-1.9992 6.5768-2.301 13.48-0.93472 20.547 2.0351 10.525 7.2815 19.254 15.508 25.71 8.2805 6.4984 17.971 8.9082 28.234 7.0079 9.8469-1.8233 17.765-7.3928 23.132-16.185 5.3988-8.802 7.0622-18.856 4.9861-29.594-2.0953-10.837-7.461-19.689-15.878-26.029a3.0615 3.0374 34.396 0 0-4.2755 0.58311 3.0615 3.0374 34.396 0 0 0.61592 4.2658c7.25 5.461 11.69 12.715 13.542 22.29 1.8336 9.4832 0.43064 17.722-4.2099 25.285a3.0618 3.0377 34.396 0 0-0.0031 5e-3c-4.6171 7.5631-10.766 11.854-19.068 13.391-8.748 1.6198-16.242-0.23942-23.32-5.7943-7.1323-5.5973-11.478-12.786-13.268-22.045-1.1959-6.1853-0.92529-12.006 0.78439-17.631 1.7132-5.6359 4.5807-10.271 8.6832-14.094a3.0618 3.0377 34.396 0 0 0.0031-0.0045c4.1233-3.857 8.7544-6.2094 14.117-7.2025a3.0615 3.0374 34.396 0 0 2.421-3.5489 3.0615 3.0374 34.396 0 0-3.5789-2.4399zm-140.69 27.857a3.0615 3.0374 34.396 0 0-2.4191 3.5486l13.397 69.289a3.0615 3.0374 34.396 0 0 3.577 2.4403 3.0615 3.0374 34.396 0 0 2.4206-3.5509l-13.397-69.289a3.0615 3.0374 34.396 0 0-3.5786-2.438zm11.469-2.1237a3.0615 3.0374 34.396 0 0-1.3761 0.69179 3.0615 3.0374 34.396 0 0-0.24935 4.2969l35.997 40.564a3.0618 3.0377 34.396 0 0 5.2789-2.5645l-8.8161-45.596a3.0615 3.0374 34.396 0 0-3.5786-2.438 3.0615 3.0374 34.396 0 0-2.4191 3.5486l6.7115 34.712-28.613-32.241a3.0615 3.0374 34.396 0 0-2.9351-0.97209zm39.318-7.2804a3.0615 3.0374 34.396 0 0-2.421 3.5489l13.397 69.289a3.0615 3.0374 34.396 0 0 3.579 2.44 3.0615 3.0374 34.396 0 0 2.4187-3.5505l-13.397-69.289a3.0615 3.0374 34.396 0 0-3.5767-2.4384zm14.515-2.6877a3.0618 3.0377 34.396 0 0-2.4191 3.5486l13.397 69.289a3.0618 3.0377 34.396 0 0 3.577 2.4403l34.59-6.4048a3.0615 3.0374 34.396 0 0 2.4206-3.5509 3.0615 3.0374 34.396 0 0-3.5786-2.438l-31.59 5.8494-12.239-63.3 31.59-5.8494a3.0615 3.0374 34.396 0 0 2.4206-3.5509 3.0615 3.0374 34.396 0 0-3.5786-2.438zm120.87-22.381a3.0615 3.0374 34.396 0 0-2.421 3.5489l13.397 69.289a3.0615 3.0374 34.396 0 0 3.579 2.44 3.0615 3.0374 34.396 0 0 2.4187-3.5505l-13.397-69.289a3.0615 3.0374 34.396 0 0-3.5767-2.4384zm11.467-2.1233a3.0615 3.0374 34.396 0 0-1.3761 0.69179 3.0615 3.0374 34.396 0 0-0.24935 4.2969l35.997 40.564a3.0618 3.0377 34.396 0 0 5.2789-2.5645l-8.8161-45.596a3.0615 3.0374 34.396 0 0-3.5767-2.4384 3.0615 3.0374 34.396 0 0-2.421 3.5489l6.7115 34.712-28.613-32.241a3.0615 3.0374 34.396 0 0-2.9351-0.97209zm39.318-7.2803a3.0615 3.0374 34.396 0 0-2.4191 3.5486l13.397 69.289a3.0615 3.0374 34.396 0 0 3.577 2.4403 3.0615 3.0374 34.396 0 0 2.4187-3.5505l-13.397-69.289a3.0615 3.0374 34.396 0 0-3.5767-2.4384zm-93.898 28.951c-6.6201 1.2258-12.013 5.0048-15.524 10.836-3.5296 5.863-4.5183 12.795-3.0768 20.25 1.6079 8.3158 5.8579 14.861 12.492 18.837a3.0615 3.0374 34.396 0 0 4.1845-1.0331 3.0615 3.0374 34.396 0 0-1.0669-4.1803c-5.1408-3.081-8.2591-7.7255-9.6142-14.734-1.2179-6.2987-0.40577-11.444 2.3235-15.977 2.7487-4.5657 6.3424-7.0678 11.439-8.0115 5.0097-0.92762 9.2964 0.15495 13.659 3.545a3.0618 3.0377 34.396 0 0 0.0092 6e-3c4.3485 3.3553 7.0098 7.7662 8.1665 13.749 1.1642 6.0212 0.34144 11.076-2.4268 15.71-2.7796 4.653-6.3208 7.1532-11.243 8.0647a3.0615 3.0374 34.396 0 0-2.4187 3.5505 3.0615 3.0374 34.396 0 0 3.5767 2.4384c6.5067-1.2048 11.826-5.0288 15.338-10.909 3.5238-5.8987 4.5677-12.735 3.1696-19.966-1.3927-7.2029-4.9338-13.188-10.44-17.44-5.5082-4.2796-11.957-5.9574-18.548-4.7368zm-126.32 36.514a3.0618 3.0377 34.396 0 0-2.4863 3.561l8.7886 45.455a3.0615 3.0374 34.396 0 0 3.579 2.44 3.0615 3.0374 34.396 0 0 2.4187-3.5505l-6.6874-34.587 28.547 32.128a3.0615 3.0374 34.396 0 0 4.3123 0.27611 3.0615 3.0374 34.396 0 0 0.24551-4.2962l-35.925-40.43a3.0618 3.0377 34.396 0 0-2.7926-0.99648zm68.083 2.5291a3.0618 3.0377 34.396 0 0-2.4206 3.5509l3.5246 18.229a3.0618 3.0377 34.396 0 0 3.5786 2.438l22.614-4.1873a3.0615 3.0374 34.396 0 0 2.4191-3.5486 3.0615 3.0374 34.396 0 0-3.577-2.4403l-19.616 3.6322-2.3667-12.24 19.616-3.6322a3.0615 3.0374 34.396 0 0 2.4191-3.5486 3.0615 3.0374 34.396 0 0-3.577-2.4403z" color="#000000" color-rendering="auto" dominant-baseline="auto" fill-opacity=".52817" image-rendering="auto" solid-color="#000000" stop-color="#000000" style="font-feature-settings:normal;font-variant-alternates:normal;font-variant-caps:normal;font-variant-east-asian:normal;font-variant-ligatures:normal;font-variant-numeric:normal;font-variant-position:normal;font-variation-settings:normal;inline-size:0;isolation:auto;mix-blend-mode:normal;shape-margin:0;shape-padding:0;text-decoration-color:#000000;text-decoration-line:none;text-decoration-style:solid;text-indent:0;text-orientation:mixed;text-transform:none;white-space:pre"/>
  </g>
  <g id="workingLights">
   <path id="path2907" transform="matrix(.98263 -.18195 .19628 1.0151 -24.743 -.14002)" d="m44.426 85.902c-6.7745 0-13.247 1.8563-19.096 5.4531-5.8126 3.5619-10.466 8.496-13.775 14.574-3.3188 6.0959-4.9863 12.858-4.9863 20.029 0 1.0152 0.19204 1.9695 0.25781 2.9648a4.2345 4.2345 0 0 0-4.1543-3.4297h-23.016a4.2349 4.2349 0 0 0-4.2344 4.2344v17.957a4.2349 4.2349 0 0 0 4.2344 4.2344h23.016a4.2345 4.2345 0 0 0 4.2344-4.2344 4.2345 4.2345 0 0 0-4.2344-4.2344h-18.781v-9.4883h18.781a4.2345 4.2345 0 0 0 4.2324-4.1543c0.78605 9.113 4.1804 17.394 10.357 24.23 7.1116 7.8712 16.545 12.021 27.252 12.021 10.287 0 19.479-4.0524 26.625-11.682l2e-3 -2e-3c7.1834-7.6388 10.879-17.308 10.879-28.188 0-10.977-3.7422-20.738-11.012-28.467a4.2345 4.2345 0 0 0-5.9863-0.18359 4.2345 4.2345 0 0 0-0.18359 5.9863c5.8815 6.2531 8.7129 13.534 8.7129 22.664 0 9.0413-2.791 16.231-8.582 22.389a4.2349 4.2349 0 0 0-0.0059 6e-3c-5.7704 6.1632-12.269 9.0078-20.449 9.0078-8.6397 0-15.28-2.9341-20.969-9.2305-5.7527-6.3672-8.5078-13.585-8.5078-22.402 0-5.8824 1.314-11.124 3.957-15.979 2.6512-4.8697 6.1777-8.5962 10.766-11.406a4.2349 4.2349 0 0 0 0.0078-0.0039c4.6138-2.8374 9.3922-4.1992 14.658-4.1992a4.2345 4.2345 0 0 0 4.2344-4.2344 4.2345 4.2345 0 0 0-4.2344-4.2344zm-143.52 1.7168a4.2345 4.2345 0 0 0-4.2344 4.2344v68.256a4.2345 4.2345 0 0 0 4.2344 4.2344 4.2345 4.2345 0 0 0 4.2344-4.2344v-68.256a4.2345 4.2345 0 0 0-4.2344-4.2344zm11.736 0a4.2345 4.2345 0 0 0-2.209 0.62891 4.2345 4.2345 0 0 0-1.3848 5.8262l27.662 44.916a4.2349 4.2349 0 0 0 7.8398-2.2207v-44.916a4.2345 4.2345 0 0 0-4.2344-4.2344 4.2345 4.2345 0 0 0-4.2344 4.2344v29.965l-19.822-32.186a4.2345 4.2345 0 0 0-3.6172-2.0137zm39.947 0a4.2345 4.2345 0 0 0-4.2344 4.2344v68.256a4.2345 4.2345 0 0 0 4.2344 4.2344 4.2345 4.2345 0 0 0 4.2344-4.2344v-68.256a4.2345 4.2345 0 0 0-4.2344-4.2344zm14.773 0a4.2349 4.2349 0 0 0-4.2344 4.2344v68.256a4.2349 4.2349 0 0 0 4.2344 4.2344h35.201a4.2345 4.2345 0 0 0 4.2344-4.2344 4.2345 4.2345 0 0 0-4.2344-4.2344h-30.967v-59.787h30.967a4.2345 4.2345 0 0 0 4.2344-4.2344 4.2345 4.2345 0 0 0-4.2344-4.2344zm123 0a4.2345 4.2345 0 0 0-4.2344 4.2344v68.256a4.2345 4.2345 0 0 0 4.2344 4.2344 4.2345 4.2345 0 0 0 4.2344-4.2344v-68.256a4.2345 4.2345 0 0 0-4.2344-4.2344zm11.736 0a4.2345 4.2345 0 0 0-2.209 0.62891 4.2345 4.2345 0 0 0-1.3848 5.8262l27.662 44.916a4.2349 4.2349 0 0 0 7.8398-2.2207v-44.916a4.2345 4.2345 0 0 0-4.2344-4.2344 4.2345 4.2345 0 0 0-4.2344 4.2344v29.965l-19.822-32.186a4.2345 4.2345 0 0 0-3.6172-2.0137zm39.947 0a4.2345 4.2345 0 0 0-4.2344 4.2344v68.256a4.2345 4.2345 0 0 0 4.2344 4.2344 4.2345 4.2345 0 0 0 4.2344-4.2344v-68.256a4.2345 4.2345 0 0 0-4.2344-4.2344zm-97.754 10.996c-7.0018 0-13.381 2.7985-18.145 7.9492-4.799 5.1893-7.2188 12.004-7.2188 19.625 0 8.5042 3.1228 15.949 9.1465 21.123a4.2345 4.2345 0 0 0 5.9707-0.45312 4.2345 4.2345 0 0 0-0.45312-5.9707c-4.2049-3.6115-6.1953-8.1078-6.1953-14.699 0-5.9281 1.6413-10.279 4.9668-13.875 3.3611-3.6345 7.0059-5.2285 11.928-5.2285 4.8235 0 8.4662 1.62 11.908 5.3926a4.2349 4.2349 0 0 0 0.0098 0.0117c3.4316 3.7354 5.0645 8.0067 5.0645 13.607 0 5.6422-1.6271 9.9118-5.0215 13.607-3.4153 3.7183-7.0076 5.3125-11.742 5.3125a4.2345 4.2345 0 0 0-4.2344 4.2344 4.2345 4.2345 0 0 0 4.2344 4.2344c6.8968 0 13.211-2.8621 17.979-8.0527 4.7885-5.2133 7.2539-11.924 7.2539-19.336 0-7.3861-2.4843-14.092-7.2871-19.326l-2e-3 -2e-3c-4.799-5.2587-11.18-8.1542-18.162-8.1542zm-131.13 12.482a4.2349 4.2349 0 0 0-4.2207 4.2344v44.777a4.2345 4.2345 0 0 0 4.2344 4.2344 4.2345 4.2345 0 0 0 4.2363-4.2344v-29.844l19.777 32.066a4.2345 4.2345 0 0 0 5.8281 1.3809 4.2345 4.2345 0 0 0 1.3809-5.8281l-27.617-44.775a4.2349 4.2349 0 0 0-3.6191-2.0117z" color="#000000" color-rendering="auto" dominant-baseline="auto" fill="#c92857" filter="url(#filter2867)" image-rendering="auto" solid-color="#000000" stop-color="#000000" style="font-feature-settings:normal;font-variant-alternates:normal;font-variant-caps:normal;font-variant-east-asian:normal;font-variant-ligatures:normal;font-variant-numeric:normal;font-variant-position:normal;font-variation-settings:normal;inline-size:0;isolation:auto;mix-blend-mode:normal;shape-margin:0;shape-padding:0;text-decoration-color:#000000;text-decoration-line:none;text-decoration-style:solid;text-indent:0;text-orientation:mixed;text-transform:none;white-space:pre"/>
   <path id="path2911" d="m36.026 80.285c-6.4683 1.1977-12.262 4.1583-17.157 8.7366-4.8678 4.5379-8.3416 10.182-10.337 16.746-1.9992 6.5768-2.3006 13.482-0.93435 20.549 2.0351 10.525 7.2815 19.254 15.508 25.71 8.2805 6.4984 17.971 8.9062 28.233 7.006 9.8442-1.8228 17.762-7.3886 23.13-16.177l0.0016-2e-3c5.4006-8.8029 7.0656-18.86 4.9892-29.598-2.0953-10.837-7.4633-19.69-15.88-26.03a3.0615 3.0374 34.396 0 0-4.2755 0.58312 3.0615 3.0374 34.396 0 0 0.61629 4.2677c7.25 5.4611 11.69 12.715 13.542 22.29 1.8336 9.4832 0.43219 17.72-4.2084 25.283a3.0618 3.0377 34.396 0 0-0.0047 7e-3c-4.6171 7.5631-10.766 11.854-19.068 13.391-8.748 1.6198-16.242-0.23942-23.32-5.7943-7.1323-5.5973-11.478-12.786-13.268-22.045-1.1959-6.1854-0.92336-12.007 0.78631-17.631 1.7132-5.6359 4.5788-10.27 8.6813-14.094a3.0618 3.0377 34.396 0 0 0.0031-0.0045c4.1233-3.857 8.7563-6.2098 14.119-7.2028a3.0615 3.0374 34.396 0 0 2.4187-3.5505 3.0615 3.0374 34.396 0 0-3.5767-2.4384zm-140.69 27.857a3.0615 3.0374 34.396 0 0-2.421 3.5489l13.397 69.289a3.0615 3.0374 34.396 0 0 3.5786 2.438 3.0615 3.0374 34.396 0 0 2.4191-3.5486l-13.397-69.289a3.0615 3.0374 34.396 0 0-3.5767-2.4384zm11.467-2.1233a3.0615 3.0374 34.396 0 0-1.3764 0.68987 3.0615 3.0374 34.396 0 0-0.24898 4.2988l35.996 40.562a3.0618 3.0377 34.396 0 0 5.2793-2.5626l-8.8161-45.596a3.0615 3.0374 34.396 0 0-3.5767-2.4384 3.0615 3.0374 34.396 0 0-2.421 3.5489l6.7115 34.712-28.613-32.243a3.0615 3.0374 34.396 0 0-2.9347-0.97017zm39.318-7.2804a3.0615 3.0374 34.396 0 0-2.4191 3.5486l13.397 69.289a3.0615 3.0374 34.396 0 0 3.5767 2.4384 3.0615 3.0374 34.396 0 0 2.4191-3.5486l-13.397-69.289a3.0615 3.0374 34.396 0 0-3.5767-2.4384zm14.517-2.688a3.0618 3.0377 34.396 0 0-2.421 3.5489l13.397 69.289a3.0618 3.0377 34.396 0 0 3.5789 2.4399l34.588-6.4045a3.0615 3.0374 34.396 0 0 2.4206-3.5509 3.0615 3.0374 34.396 0 0-3.5786-2.438l-31.59 5.8494-12.239-63.3 31.59-5.8494a3.0615 3.0374 34.396 0 0 2.4206-3.5509 3.0615 3.0374 34.396 0 0-3.5786-2.438zm120.87-22.38a3.0615 3.0374 34.396 0 0-2.421 3.5489l13.397 69.289a3.0615 3.0374 34.396 0 0 3.5786 2.438 3.0615 3.0374 34.396 0 0 2.4191-3.5486l-13.397-69.289a3.0615 3.0374 34.396 0 0-3.5767-2.4384zm11.467-2.1233a3.0615 3.0374 34.396 0 0-1.3764 0.68988 3.0615 3.0374 34.396 0 0-0.24898 4.2988l35.996 40.562a3.0618 3.0377 34.396 0 0 5.2793-2.5626l-8.8161-45.596a3.0615 3.0374 34.396 0 0-3.5767-2.4384 3.0615 3.0374 34.396 0 0-2.421 3.5489l6.7115 34.712-28.613-32.243a3.0615 3.0374 34.396 0 0-2.9347-0.97017zm39.318-7.2803a3.0615 3.0374 34.396 0 0-2.4191 3.5486l13.397 69.289a3.0615 3.0374 34.396 0 0 3.5767 2.4384 3.0615 3.0374 34.396 0 0 2.4191-3.5486l-13.397-69.289a3.0615 3.0374 34.396 0 0-3.5767-2.4384zm-93.898 28.949c-6.6201 1.2258-12.013 5.0068-15.523 10.838-3.5296 5.863-4.5183 12.795-3.0768 20.25 1.6079 8.3158 5.8579 14.861 12.492 18.837a3.0615 3.0374 34.396 0 0 4.1845-1.0331 3.0615 3.0374 34.396 0 0-1.0669-4.1803c-5.1408-3.081-8.2572-7.7259-9.6123-14.734-1.2179-6.2987-0.40769-11.443 2.3216-15.977 2.7487-4.5657 6.3424-7.0678 11.439-8.0115 5.0097-0.92762 9.2964 0.15494 13.659 3.545a3.0618 3.0377 34.396 0 0 0.0088 4e-3c4.3485 3.3553 7.0102 7.7681 8.1669 13.751 1.1642 6.0212 0.34145 11.076-2.4268 15.71-2.7796 4.653-6.3208 7.1532-11.243 8.0647a3.0615 3.0374 34.396 0 0-2.4187 3.5505 3.0615 3.0374 34.396 0 0 3.5767 2.4384c6.5067-1.2048 11.828-5.0292 15.34-10.909 3.5238-5.8987 4.5657-12.735 3.1677-19.965-1.3932-7.2049-4.9355-13.192-10.445-17.444-5.5067-4.2763-11.955-5.9543-18.544-4.7342zm-126.47 36.543a3.0618 3.0377 34.396 0 0-2.3403 3.534l8.7886 45.455a3.0615 3.0374 34.396 0 0 3.5767 2.4384 3.0615 3.0374 34.396 0 0 2.4191-3.5486l-6.6874-34.587 28.547 32.127a3.0615 3.0374 34.396 0 0 4.3127 0.27802 3.0615 3.0374 34.396 0 0 0.24551-4.2962l-35.925-40.432a3.0618 3.0377 34.396 0 0-2.9363-0.9679zm68.227 2.5024a3.0618 3.0377 34.396 0 0-2.421 3.5489l3.5246 18.229a3.0618 3.0377 34.396 0 0 3.5789 2.4399l22.614-4.1873a3.0615 3.0374 34.396 0 0 2.4206-3.5508 3.0615 3.0374 34.396 0 0-3.5786-2.438l-19.616 3.6322-2.3667-12.24 19.616-3.6322a3.0615 3.0374 34.396 0 0 2.4206-3.5508 3.0615 3.0374 34.396 0 0-3.5786-2.438z" color="#000000" color-rendering="auto" dominant-baseline="auto" fill="#de57c3" image-rendering="auto" solid-color="#000000" stop-color="#000000" style="font-feature-settings:normal;font-variant-alternates:normal;font-variant-caps:normal;font-variant-east-asian:normal;font-variant-ligatures:normal;font-variant-numeric:normal;font-variant-position:normal;font-variation-settings:normal;inline-size:0;isolation:auto;mix-blend-mode:normal;shape-margin:0;shape-padding:0;text-decoration-color:#000000;text-decoration-line:none;text-decoration-style:solid;text-indent:0;text-orientation:mixed;text-transform:none;white-space:pre"/>
   <path id="path2923" d="m36.28 81.598c-6.2259 1.1528-11.765 3.9785-16.49 8.3986-4.7006 4.3814-8.0418 9.8059-9.9753 16.167-1.9357 6.368-2.2318 13.036-0.90283 19.909 1.9813 10.247 7.0319 18.639 15.018 24.906 8.0169 6.2915 17.225 8.5795 27.155 6.7407 9.5073-1.7604 17.038-7.0478 22.241-15.569 5.2348-8.5314 6.8412-18.189 4.8179-28.653-2.0418-10.56-7.2064-19.062-15.367-25.209a1.719 1.7055 34.396 0 0-2.3994 0.3271 1.719 1.7055 34.396 0 0 0.34572 2.3951c7.5059 5.6538 12.15 13.259 14.055 23.111 1.8869 9.7588 0.42623 18.395-4.3812 26.23a1.7192 1.7057 34.396 0 0-0.0016 2e-3c-4.7817 7.8327-11.319 12.403-19.96 14.003-9.0801 1.6813-17.054-0.29622-24.396-6.058-7.3722-5.7856-11.916-13.313-13.759-22.849-1.2333-6.3785-0.95533-12.438 0.81782-18.271 1.7751-5.8397 4.7731-10.697 9.0439-14.677a1.7192 1.7057 34.396 0 0 0.0038-7.1e-4c4.2924-4.0152 9.1788-6.5025 14.784-7.5405a1.719 1.7055 34.396 0 0 1.3572-1.993 1.719 1.7055 34.396 0 0-2.0071-1.3684zm-140.69 27.855a1.719 1.7055 34.396 0 0-1.3591 1.9937l13.397 69.289a1.719 1.7055 34.396 0 0 2.0094 1.3699 1.719 1.7055 34.396 0 0 1.3572-1.9933l-13.397-69.289a1.719 1.7055 34.396 0 0-2.0075-1.3703zm11.554-2.1393a1.719 1.7055 34.396 0 0-0.82592 0.39924 1.719 1.7055 34.396 0 0-0.14044 2.4116l35.997 40.564a1.7192 1.7057 34.396 0 0 2.9643-1.4388l-8.8161-45.596a1.719 1.7055 34.396 0 0-2.0075-1.3703 1.719 1.7055 34.396 0 0-1.3591 1.9937l7.6344 39.485-31.851-35.891a1.719 1.7055 34.396 0 0-1.5956-0.55669zm39.232-7.2643a1.719 1.7055 34.396 0 0-1.3591 1.9937l13.397 69.289a1.719 1.7055 34.396 0 0 2.0094 1.3699 1.719 1.7055 34.396 0 0 1.3591-1.9937l-13.397-69.289a1.719 1.7055 34.396 0 0-2.0094-1.3699zm135.38-25.069a1.719 1.7055 34.396 0 0-1.3591 1.9937l13.397 69.289a1.719 1.7055 34.396 0 0 2.0094 1.3699 1.719 1.7055 34.396 0 0 1.3572-1.9933l-13.397-69.289a1.719 1.7055 34.396 0 0-2.0075-1.3703zm11.554-2.1393a1.719 1.7055 34.396 0 0-0.82593 0.39924 1.719 1.7055 34.396 0 0-0.13852 2.4112l35.995 40.564a1.7192 1.7057 34.396 0 0 2.9643-1.4388l-8.8161-45.596a1.719 1.7055 34.396 0 0-2.0075-1.3703 1.719 1.7055 34.396 0 0-1.3591 1.9937l7.6344 39.485-31.851-35.891a1.719 1.7055 34.396 0 0-1.5956-0.55669zm39.232-7.2643a1.719 1.7055 34.396 0 0-1.3591 1.9937l13.397 69.289a1.719 1.7055 34.396 0 0 2.0094 1.3699 1.719 1.7055 34.396 0 0 1.3591-1.9937l-13.397-69.289a1.719 1.7055 34.396 0 0-2.0094-1.3699zm-171.65 31.786a1.7192 1.7057 34.396 0 0-1.3595 1.9917l13.397 69.289a1.7192 1.7057 34.396 0 0 2.0094 1.3699l34.588-6.4045a1.719 1.7055 34.396 0 0 1.3591-1.9937 1.719 1.7055 34.396 0 0-2.0091-1.368l-32.905 6.093-12.747-65.928 32.905-6.093a1.719 1.7055 34.396 0 0 1.3591-1.9937 1.719 1.7055 34.396 0 0-2.0091-1.368zm77.754-2.835c-6.286 1.164-11.285 4.6636-14.629 10.217-3.3542 5.5715-4.3023 12.112-2.9098 19.314 1.5524 8.0292 5.5538 14.157 11.861 17.937a1.719 1.7055 34.396 0 0 2.3505-0.58023 1.719 1.7055 34.396 0 0-0.59885-2.3462c-5.4683-3.2773-8.8353-8.339-10.246-15.634-1.2669-6.5523-0.41616-12.089 2.4886-16.914 2.9156-4.8431 6.9028-7.6265 12.333-8.632 5.3566-0.99186 10.118 0.22194 14.732 3.8071a1.7192 1.7057 34.396 0 0 0.0046 3e-3c4.6033 3.5519 7.4569 8.3092 8.6655 14.56 1.2155 6.2864 0.3451 11.731-2.5888 16.642-2.9403 4.9219-6.8711 7.714-12.141 8.6898a1.719 1.7055 34.396 0 0-1.3572 1.9933 1.719 1.7055 34.396 0 0 2.0071 1.3684c6.1594-1.1405 11.091-4.6731 14.443-10.284 3.3581-5.6214 4.3525-12.068 3.0057-19.033-1.3411-6.9361-4.6902-12.577-9.9433-16.632l-0.0046-0.0032c-5.256-4.0821-11.23-5.6294-17.473-4.4734zm-126.38 36.525a1.7192 1.7057 34.396 0 0-1.3668 1.9951l8.7886 45.455a1.719 1.7055 34.396 0 0 2.0094 1.3699 1.719 1.7055 34.396 0 0 1.3591-1.9937l-7.6084-39.351 31.781 35.767a1.719 1.7055 34.396 0 0 2.4211 0.15553 1.719 1.7055 34.396 0 0 0.13815-2.4132l-35.925-40.43a1.7192 1.7057 34.396 0 0-1.5971-0.55442zm68.141 2.5204a1.7192 1.7057 34.396 0 0-1.3595 1.9917l3.5246 18.229a1.7192 1.7057 34.396 0 0 2.0094 1.3699l22.614-4.1873a1.719 1.7055 34.396 0 0 1.3591-1.9937 1.719 1.7055 34.396 0 0-2.0091-1.368l-20.931 3.8758-2.8747-14.868 20.931-3.8758a1.719 1.7055 34.396 0 0 1.3591-1.9937 1.719 1.7055 34.396 0 0-2.0091-1.368z" color="#000000" color-rendering="auto" dominant-baseline="auto" fill="#fdf8fd" image-rendering="auto" solid-color="#000000" stop-color="#000000" style="font-feature-settings:normal;font-variant-alternates:normal;font-variant-caps:normal;font-variant-east-asian:normal;font-variant-ligatures:normal;font-variant-numeric:normal;font-variant-position:normal;font-variation-settings:normal;inline-size:0;isolation:auto;mix-blend-mode:normal;shape-margin:0;shape-padding:0;text-decoration-color:#000000;text-decoration-line:none;text-decoration-style:solid;text-indent:0;text-orientation:mixed;text-transform:none;white-space:pre"/>
   <animate id='mainlights' attributeName='fill-opacity' values='1 ; .5 ; 1' dur='3s' begin='0s'
        repeatCount="indefinite" />
  </g>
  <g id="brokenLights">
   <path id="path866" d="m-24.905 106.69a3.1035 2.9969 72.75 0 0-2.359 3.5913l2.4224 12.529a3.1035 2.9969 72.75 0 0 3.5367 2.4996l22.616-4.1877a3.1032 2.9966 72.75 0 0 2.359-3.5913 3.1032 2.9966 72.75 0 0-3.5367-2.4996l-19.668 3.6418-1.2448-6.4379 19.668-3.6418a3.1032 2.9966 72.75 0 0 2.359-3.5913 3.1032 2.9966 72.75 0 0-3.5367-2.4996z" color="#000000" color-rendering="auto" dominant-baseline="auto" fill="#c92857" filter="url(#filter868)" image-rendering="auto" solid-color="#000000" stop-color="#000000" style="font-feature-settings:normal;font-variant-alternates:normal;font-variant-caps:normal;font-variant-east-asian:normal;font-variant-ligatures:normal;font-variant-numeric:normal;font-variant-position:normal;font-variation-settings:normal;inline-size:0;isolation:auto;mix-blend-mode:normal;shape-margin:0;shape-padding:0;text-decoration-color:#000000;text-decoration-line:none;text-decoration-style:solid;text-indent:0;text-orientation:mixed;text-transform:none;white-space:pre"/>
   <path id="path2915" d="m-24.905 106.69a3.1035 2.9969 72.75 0 0-2.359 3.5913l2.4224 12.529a3.1035 2.9969 72.75 0 0 3.5367 2.4996l22.616-4.1877a3.1032 2.9966 72.75 0 0 2.359-3.5913 3.1032 2.9966 72.75 0 0-3.5367-2.4996l-19.668 3.6418-1.2448-6.4379 19.668-3.6418a3.1032 2.9966 72.75 0 0 2.359-3.5913 3.1032 2.9966 72.75 0 0-3.5367-2.4996z" color="#000000" color-rendering="auto" dominant-baseline="auto" fill="#de57c3" image-rendering="auto" solid-color="#000000" stop-color="#000000" style="font-feature-settings:normal;font-variant-alternates:normal;font-variant-caps:normal;font-variant-east-asian:normal;font-variant-ligatures:normal;font-variant-numeric:normal;font-variant-position:normal;font-variation-settings:normal;inline-size:0;isolation:auto;mix-blend-mode:normal;shape-margin:0;shape-padding:0;text-decoration-color:#000000;text-decoration-line:none;text-decoration-style:solid;text-indent:0;text-orientation:mixed;text-transform:none;white-space:pre"/>
   <path id="path2919" d="m-24.647 108.02a1.7426 1.6828 72.75 0 0-1.3235 2.0174l2.4224 12.529a1.7426 1.6828 72.75 0 0 1.9848 1.4028l22.616-4.1877a1.7425 1.6826 72.75 0 0 1.3239-2.0154 1.7425 1.6826 72.75 0 0-1.9852-1.4048l-20.96 3.881-1.7611-9.1086 20.96-3.881a1.7425 1.6826 72.75 0 0 1.3239-2.0154 1.7425 1.6826 72.75 0 0-1.9852-1.4048z" color="#000000" color-rendering="auto" dominant-baseline="auto" fill="#fdf8fd" image-rendering="auto" solid-color="#000000" stop-color="#000000" style="font-feature-settings:normal;font-variant-alternates:normal;font-variant-caps:normal;font-variant-east-asian:normal;font-variant-ligatures:normal;font-variant-numeric:normal;font-variant-position:normal;font-variation-settings:normal;inline-size:0;isolation:auto;mix-blend-mode:normal;shape-margin:0;shape-padding:0;text-decoration-color:#000000;text-decoration-line:none;text-decoration-style:solid;text-indent:0;text-orientation:mixed;text-transform:none;white-space:pre"/>
   <path id="path860" d="m96.578 92.6a3.1035 2.9969 72.75 0 0-2.3552 3.5906l8.7885 45.454a3.1032 2.9966 72.75 0 0 3.5367 2.4996 3.1032 2.9966 72.75 0 0 2.359-3.5913l-6.7122-34.715 28.703 32.301a3.1032 2.9966 72.75 0 0 4.2473 0.24245 3.1032 2.9966 72.75 0 0 0.1511-4.3695l-35.926-40.431a3.1035 2.9969 72.75 0 0-2.7917-0.98022z" color="#000000" color-rendering="auto" dominant-baseline="auto" fill="#c92857" filter="url(#filter862)" image-rendering="auto" solid-color="#000000" stop-color="#000000" style="font-feature-settings:normal;font-variant-alternates:normal;font-variant-caps:normal;font-variant-east-asian:normal;font-variant-ligatures:normal;font-variant-numeric:normal;font-variant-position:normal;font-variation-settings:normal;inline-size:0;isolation:auto;mix-blend-mode:normal;shape-margin:0;shape-padding:0;text-decoration-color:#000000;text-decoration-line:none;text-decoration-style:solid;text-indent:0;text-orientation:mixed;text-transform:none;white-space:pre"/>
   <path id="path2927" d="m96.578 92.6a3.1035 2.9969 72.75 0 0-2.3552 3.5906l8.7885 45.454a3.1032 2.9966 72.75 0 0 3.5367 2.4996 3.1032 2.9966 72.75 0 0 2.359-3.5913l-6.7122-34.715 28.703 32.301a3.1032 2.9966 72.75 0 0 4.2473 0.24245 3.1032 2.9966 72.75 0 0 0.1511-4.3695l-35.926-40.431a3.1035 2.9969 72.75 0 0-2.7917-0.98022z" color="#000000" color-rendering="auto" dominant-baseline="auto" fill="#de57c3" image-rendering="auto" solid-color="#000000" stop-color="#000000" style="font-feature-settings:normal;font-variant-alternates:normal;font-variant-caps:normal;font-variant-east-asian:normal;font-variant-ligatures:normal;font-variant-numeric:normal;font-variant-position:normal;font-variation-settings:normal;inline-size:0;isolation:auto;mix-blend-mode:normal;shape-margin:0;shape-padding:0;text-decoration-color:#000000;text-decoration-line:none;text-decoration-style:solid;text-indent:0;text-orientation:mixed;text-transform:none;white-space:pre"/>
   <path id="path2931" d="m96.809 93.941a1.7426 1.6828 72.75 0 0-1.2932 2.0097l8.7885 45.454a1.7425 1.6826 72.75 0 0 1.9852 1.4048 1.7425 1.6826 72.75 0 0 1.3254-2.0178l-7.6223-39.422 31.868 35.863a1.7425 1.6826 72.75 0 0 2.3858 0.13531 1.7425 1.6826 72.75 0 0 0.0846-2.4514l-35.926-40.431a1.7426 1.6828 72.75 0 0-1.5962-0.54439z" color="#000000" color-rendering="auto" dominant-baseline="auto" fill="#fdf8fd" image-rendering="auto" solid-color="#000000" stop-color="#000000" style="font-feature-settings:normal;font-variant-alternates:normal;font-variant-caps:normal;font-variant-east-asian:normal;font-variant-ligatures:normal;font-variant-numeric:normal;font-variant-position:normal;font-variation-settings:normal;inline-size:0;isolation:auto;mix-blend-mode:normal;shape-margin:0;shape-padding:0;text-decoration-color:#000000;text-decoration-line:none;text-decoration-style:solid;text-indent:0;text-orientation:mixed;text-transform:none;white-space:pre"/>
   <animate id='brokenlights1' attributeName='fill-opacity' values=".4" dur='.5s' begin='0s;brokenlights8.end'/>
   <animate id='brokenlights2' attributeName="fill-opacity" values="1" dur=".7s" begin='brokenlights1.end'/>
   <animate id='brokenlights3' attributeName="fill-opacity" values=".4" dur=".7s" begin='brokenlights2.end'/>
   <animate id='brokenlights4' attributeName="fill-opacity" values="1" dur="1s" begin='brokenlights3.end'/>
   <animate id='brokenlights5' attributeName="fill-opacity" values=".4" dur=".3s" begin='brokenlights4.end'/>
   <animate id='brokenlights6' attributeName="fill-opacity" values="1" dur=".3s" begin='brokenlights5.end'/>
   <animate id='brokenlights7' attributeName="fill-opacity" values=".4" dur="1s" begin='brokenlights6.end'/>
   <animate id='brokenlights8' attributeName="fill-opacity" values=".5;1;.5;1" dur="4.5s" begin='brokenlights7.end'/>

   <!-- 3.6s -->
    
   
    

  
  
  </g>
 </g>
</svg>
