<?xml version="1.0" encoding="UTF-8" standalone="no"?>
<svg
   xmlns:dc="http://purl.org/dc/elements/1.1/"
   xmlns:cc="http://creativecommons.org/ns#"
   xmlns:rdf="http://www.w3.org/1999/02/22-rdf-syntax-ns#"
   xmlns:svg="http://www.w3.org/2000/svg"
   xmlns="http://www.w3.org/2000/svg"
   xmlns:sodipodi="http://sodipodi.sourceforge.net/DTD/sodipodi-0.dtd"
   xmlns:inkscape="http://www.inkscape.org/namespaces/inkscape"
   sodipodi:docname="neon.svg"
   inkscape:version="1.0 (4035a4fb49, 2020-05-01)"
   id="svg8"
   version="1.1"
   viewBox="0 0 299.01627 159.33881"
   height="159.33881mm"
   width="299.01627mm">
  <defs
     id="defs2">
    <rect
       id="rect15"
       height="142.87231"
       width="267.10913"
       y="97.836479"
       x="-25.62384" />
    <filter
       height="1.1127846"
       y="-0.056392297"
       width="1.0513374"
       x="-0.025668705"
       id="filter2867"
       style="color-interpolation-filters:sRGB"
       inkscape:collect="always">
      <feGaussianBlur
         id="feGaussianBlur2869"
         stdDeviation="2.7702927"
         inkscape:collect="always" />
    </filter>
    <filter
       height="1.1792333"
       y="-0.089616642"
       width="1.220705"
       x="-0.11035251"
       id="filter862"
       style="color-interpolation-filters:sRGB"
       inkscape:collect="always">
      <feGaussianBlur
         id="feGaussianBlur864"
         stdDeviation="1.9283144"
         inkscape:collect="always" />
    </filter>
    <filter
       height="1.4450202"
       y="-0.2225101"
       width="1.3282696"
       x="-0.16413478"
       id="filter868"
       style="color-interpolation-filters:sRGB"
       inkscape:collect="always">
      <feGaussianBlur
         id="feGaussianBlur870"
         stdDeviation="2.1235207"
         inkscape:collect="always" />
    </filter>
  </defs>
  <sodipodi:namedview
     inkscape:snap-global="false"
     inkscape:window-maximized="1"
     inkscape:window-y="-8"
     inkscape:window-x="-8"
     inkscape:window-height="1017"
     inkscape:window-width="1920"
     showgrid="false"
     inkscape:document-rotation="0"
     inkscape:current-layer="layer1"
     inkscape:document-units="mm"
     inkscape:cy="301.66289"
     inkscape:cx="353.32015"
     inkscape:zoom="0.64593752"
     inkscape:pageshadow="2"
     inkscape:pageopacity="0.0"
     borderopacity="1.0"
     bordercolor="#666666"
     pagecolor="#ffffff"
     id="base" />
  <metadata
     id="metadata5">
    <rdf:RDF>
      <cc:Work
         rdf:about="">
        <dc:format>image/svg+xml</dc:format>
        <dc:type
           rdf:resource="http://purl.org/dc/dcmitype/StillImage" />
        <dc:title />
      </cc:Work>
    </rdf:RDF>
  </metadata>
  <g
     style="display:inline"
     sodipodi:insensitive="true"
     transform="translate(130.81551,-38.079628)"
     inkscape:label="background"
     id="layer2"
     inkscape:groupmode="layer">
    <rect
       ry="0"
       rx="0"
       y="38.079628"
       x="-130.81551"
       height="159.33881"
       width="299.01627"
       id="rect25"
       style="fill:#501644;stroke:none;stroke-width:6;stroke-linecap:round;stroke-linejoin:round;stroke-miterlimit:4;stroke-dasharray:none" />
  </g>
  <g
     style="display:inline"
     transform="translate(130.81551,-38.079628)"
     id="layer1"
     inkscape:label="Layer 1">
    <g
       inkscape:label="shadows"
       id="shadows">
      <path
         id="path2895"
         d="m -26.888476,110.72989 a 3.1035181,2.9968888 72.75025 0 0 -2.359045,3.59129 l 2.422434,12.52878 a 3.1035181,2.9968888 72.75025 0 0 3.536718,2.4996 l 22.6138617,-4.18731 a 3.1032078,2.9965891 72.750213 0 0 2.359045,-3.59129 3.1032078,2.9965891 72.750213 0 0 -3.5367183,-2.49961 l -19.6659784,3.64147 -1.244762,-6.43788 19.6659799,-3.64147 a 3.1032078,2.9965891 72.750213 0 0 2.35904504,-3.59129 3.1032078,2.9965891 72.750213 0 0 -3.53671834,-2.4996 z"
         style="color:#000000;font-style:normal;font-variant:normal;font-weight:bold;font-stretch:normal;font-size:50.8px;line-height:1.25;font-family:'Century Gothic';-inkscape-font-specification:'Century Gothic, Bold';font-variant-ligatures:normal;font-variant-position:normal;font-variant-caps:normal;font-variant-numeric:normal;font-variant-alternates:normal;font-variant-east-asian:normal;font-feature-settings:normal;font-variation-settings:normal;text-indent:0;text-align:start;text-decoration:none;text-decoration-line:none;text-decoration-style:solid;text-decoration-color:#000000;letter-spacing:normal;word-spacing:normal;text-transform:none;writing-mode:lr-tb;direction:ltr;text-orientation:mixed;dominant-baseline:auto;baseline-shift:baseline;text-anchor:start;white-space:pre;shape-padding:0;shape-margin:0;inline-size:0;clip-rule:nonzero;display:inline;overflow:visible;visibility:visible;opacity:1;isolation:auto;mix-blend-mode:normal;color-interpolation:sRGB;color-interpolation-filters:linearRGB;solid-color:#000000;solid-opacity:1;vector-effect:none;fill:#000000;fill-opacity:0.53;fill-rule:nonzero;stroke:none;stroke-width:6.09887;stroke-linecap:round;stroke-linejoin:round;stroke-miterlimit:4;stroke-dasharray:none;stroke-dashoffset:0;stroke-opacity:1;color-rendering:auto;image-rendering:auto;shape-rendering:auto;text-rendering:auto;enable-background:accumulate;stop-color:#000000" />
      <path
         id="path2899"
         d="m 94.363353,95.459978 a 3.1035181,2.9968888 72.75025 0 0 -2.353671,3.58824 l 8.788848,45.455712 a 3.1032078,2.9965891 72.750213 0 0 3.53672,2.4996 3.1032078,2.9965891 72.750213 0 0 2.35905,-3.59129 l -6.711825,-34.71336 28.700025,32.29717 a 3.1032078,2.9965891 72.750213 0 0 4.24923,0.2421 3.1032078,2.9965891 72.750213 0 0 0.15148,-4.36751 L 97.156963,96.439845 a 3.1035181,2.9968888 72.75025 0 0 -2.79361,-0.979867 z"
         style="color:#000000;font-style:normal;font-variant:normal;font-weight:bold;font-stretch:normal;font-size:50.8px;line-height:1.25;font-family:'Century Gothic';-inkscape-font-specification:'Century Gothic, Bold';font-variant-ligatures:normal;font-variant-position:normal;font-variant-caps:normal;font-variant-numeric:normal;font-variant-alternates:normal;font-variant-east-asian:normal;font-feature-settings:normal;font-variation-settings:normal;text-indent:0;text-align:start;text-decoration:none;text-decoration-line:none;text-decoration-style:solid;text-decoration-color:#000000;letter-spacing:normal;word-spacing:normal;text-transform:none;writing-mode:lr-tb;direction:ltr;text-orientation:mixed;dominant-baseline:auto;baseline-shift:baseline;text-anchor:start;white-space:pre;shape-padding:0;shape-margin:0;inline-size:0;clip-rule:nonzero;display:inline;overflow:visible;visibility:visible;opacity:1;isolation:auto;mix-blend-mode:normal;color-interpolation:sRGB;color-interpolation-filters:linearRGB;solid-color:#000000;solid-opacity:1;vector-effect:none;fill:#000000;fill-opacity:0.53;fill-rule:nonzero;stroke:none;stroke-width:6.09887;stroke-linecap:round;stroke-linejoin:round;stroke-miterlimit:4;stroke-dasharray:none;stroke-dashoffset:0;stroke-opacity:1;color-rendering:auto;image-rendering:auto;shape-rendering:auto;text-rendering:auto;enable-background:accumulate;stop-color:#000000" />
      <path
         style="color:#000000;font-style:normal;font-variant:normal;font-weight:bold;font-stretch:normal;font-size:50.8px;line-height:1.25;font-family:'Century Gothic';-inkscape-font-specification:'Century Gothic, Bold';font-variant-ligatures:normal;font-variant-position:normal;font-variant-caps:normal;font-variant-numeric:normal;font-variant-alternates:normal;font-variant-east-asian:normal;font-feature-settings:normal;font-variation-settings:normal;text-indent:0;text-align:start;text-decoration:none;text-decoration-line:none;text-decoration-style:solid;text-decoration-color:#000000;letter-spacing:normal;word-spacing:normal;text-transform:none;writing-mode:lr-tb;direction:ltr;text-orientation:mixed;dominant-baseline:auto;baseline-shift:baseline;text-anchor:start;white-space:pre;shape-padding:0;shape-margin:0;inline-size:0;clip-rule:nonzero;display:inline;overflow:visible;visibility:visible;opacity:1;isolation:auto;mix-blend-mode:normal;color-interpolation:sRGB;color-interpolation-filters:linearRGB;solid-color:#000000;solid-opacity:1;vector-effect:none;fill:#000000;fill-opacity:0.528169;fill-rule:nonzero;stroke:none;stroke-width:6.099;stroke-linecap:round;stroke-linejoin:round;stroke-miterlimit:4;stroke-dasharray:none;stroke-dashoffset:0;stroke-opacity:1;color-rendering:auto;image-rendering:auto;shape-rendering:auto;text-rendering:auto;enable-background:accumulate;stop-color:#000000;stop-opacity:1"
         d="M 33.734016,84.790954 C 27.265755,85.988655 21.473531,88.948879 16.579131,93.527178 11.711295,98.065086 8.2379105,103.71154 6.2427711,110.275 c -1.9991965,6.57682 -2.301018,13.48038 -0.934724,20.54682 2.0350694,10.52533 7.2814609,19.2537 15.5079449,25.7097 8.280523,6.49839 17.970997,8.90815 28.233527,7.00788 9.846941,-1.82332 17.764701,-7.39279 23.132449,-16.18541 5.398762,-8.80197 7.062161,-18.85648 4.98609,-29.59387 -2.09527,-10.8367 -7.46101,-19.688532 -15.877922,-26.028527 a 3.0615054,3.037412 34.396422 0 0 -4.27551,0.583114 3.0615054,3.037412 34.396422 0 0 0.615922,4.265797 c 7.250032,5.461046 11.69048,12.714976 13.541773,22.289826 1.833577,9.48322 0.430638,17.72186 -4.209949,25.28483 a 3.0618115,3.0377157 34.396422 0 0 -0.0031,0.005 c -4.617144,7.56308 -10.765616,11.85354 -19.067703,13.3908 -8.748003,1.61983 -16.241943,-0.23942 -23.320195,-5.79428 -7.132292,-5.59729 -11.477533,-12.78649 -13.26759,-22.04463 -1.195929,-6.18533 -0.925287,-12.00649 0.784386,-17.63086 1.713184,-5.6359 4.580731,-10.27056 8.683221,-14.093879 a 3.0618115,3.0377157 34.396422 0 0 0.0031,-0.0045 c 4.123321,-3.857019 8.754404,-6.209429 14.117474,-7.202486 a 3.0615054,3.037412 34.396422 0 0 2.420999,-3.548941 3.0615054,3.037412 34.396422 0 0 -3.578948,-2.439941 z M -106.95742,112.64777 a 3.0615054,3.037412 34.396422 0 0 -2.41908,3.54859 l 13.397047,69.28924 a 3.0615054,3.037412 34.396422 0 0 3.577037,2.4403 3.0615054,3.037412 34.396422 0 0 2.420623,-3.55087 L -103.37884,115.0858 a 3.0615054,3.037412 34.396422 0 0 -3.57858,-2.43803 z m 11.4691,-2.12368 a 3.0615054,3.037412 34.396422 0 0 -1.376072,0.69179 3.0615054,3.037412 34.396422 0 0 -0.24935,4.29691 l 35.996599,40.56352 a 3.0618115,3.0377157 34.396422 0 0 5.278899,-2.56454 L -64.6543,107.91533 a 3.0615054,3.037412 34.396422 0 0 -3.578578,-2.43802 3.0615054,3.037412 34.396422 0 0 -2.419079,3.54859 l 6.711504,34.71174 -28.612779,-32.24146 a 3.0615054,3.037412 34.396422 0 0 -2.935088,-0.97209 z m 39.317973,-7.28035 a 3.0615054,3.037412 34.396422 0 0 -2.421,3.54894 l 13.397052,69.28924 a 3.0615054,3.037412 34.396422 0 0 3.57895,2.43995 3.0615054,3.037412 34.396422 0 0 2.418707,-3.55051 L -52.59369,105.68212 a 3.0615054,3.037412 34.396422 0 0 -3.576657,-2.43838 z m 14.514982,-2.68768 a 3.0618115,3.0377157 34.396422 0 0 -2.419078,3.54859 l 13.397051,69.28923 a 3.0618115,3.0377157 34.396422 0 0 3.57703,2.44031 l 34.5897525,-6.40484 a 3.0615054,3.037412 34.396422 0 0 2.4206274,-3.55087 3.0615054,3.037412 34.396422 0 0 -3.578576,-2.43802 l -31.5899649,5.84939 -12.239104,-63.30036 31.5899639,-5.84939 a 3.0615054,3.037412 34.396422 0 0 2.4206288,-3.550855 3.0615054,3.037412 34.396422 0 0 -3.5785775,-2.438024 z M 79.213842,78.175212 a 3.0615054,3.037412 34.396422 0 0 -2.420999,3.548941 l 13.397051,69.289237 a 3.0615054,3.037412 34.396422 0 0 3.57895,2.43995 3.0615054,3.037412 34.396422 0 0 2.418707,-3.55051 L 82.790499,80.613591 a 3.0615054,3.037412 34.396422 0 0 -3.576657,-2.438379 z m 11.467181,-2.12333 a 3.0615054,3.037412 34.396422 0 0 -1.376072,0.691793 3.0615054,3.037412 34.396422 0 0 -0.249349,4.296908 L 125.0522,121.6041 a 3.0618115,3.0377157 34.396422 0 0 5.27891,-2.56454 l -8.81606,-45.596433 a 3.0615054,3.037412 34.396422 0 0 -3.57666,-2.438378 3.0615054,3.037412 34.396422 0 0 -2.421,3.54894 L 122.2289,109.26543 93.616115,77.02397 a 3.0615054,3.037412 34.396422 0 0 -2.935092,-0.972088 z m 39.317967,-7.280346 a 3.0615054,3.037412 34.396422 0 0 -2.41908,3.548585 l 13.39705,69.289239 a 3.0615054,3.037412 34.396422 0 0 3.57704,2.4403 3.0615054,3.037412 34.396422 0 0 2.4187,-3.55051 L 133.57565,71.209915 a 3.0615054,3.037412 34.396422 0 0 -3.57666,-2.438379 z m -93.897921,28.95108 c -6.62013,1.225822 -12.013323,5.004824 -15.523597,10.835624 -3.529638,5.86297 -4.518316,12.79469 -3.076786,20.25024 1.607858,8.31579 5.857859,14.86107 12.492286,18.83725 a 3.0615054,3.037412 34.396422 0 0 4.184534,-1.03306 3.0615054,3.037412 34.396422 0 0 -1.066863,-4.18031 c -5.140804,-3.08102 -8.259122,-7.72554 -9.614221,-14.73408 -1.217855,-6.2987 -0.405771,-11.44369 2.323522,-15.97721 2.748657,-4.56572 6.342371,-7.06783 11.438702,-8.0115 5.009679,-0.92762 9.296362,0.15495 13.659215,3.54497 a 3.0618115,3.0377157 34.396422 0 0 0.0092,0.006 c 4.34852,3.35534 7.009788,7.76621 8.166516,13.74878 1.164199,6.02123 0.341445,11.07627 -2.426847,15.71031 -2.779597,4.65296 -6.320805,7.15321 -11.243414,8.06471 a 3.0615054,3.037412 34.396422 0 0 -2.418707,3.55051 3.0615054,3.037412 34.396422 0 0 3.576656,2.43837 c 6.506686,-1.20482 11.82593,-5.02882 15.338413,-10.9086 3.523785,-5.89872 4.567666,-12.73492 3.169636,-19.96551 C 63.69663,112.69618 60.155528,106.71104 54.649624,102.45955 49.141441,98.179999 42.693046,96.5022 36.10113,97.722798 Z M -90.22116,134.23684 a 3.0618115,3.0377157 34.396422 0 0 -2.486298,3.56102 l 8.788618,45.45452 a 3.0615054,3.037412 34.396422 0 0 3.57895,2.43995 3.0615054,3.037412 34.396422 0 0 2.418707,-3.55051 l -6.687403,-34.58709 28.547169,32.12847 a 3.0615054,3.037412 34.396422 0 0 4.312341,0.27611 3.0615054,3.037412 34.396422 0 0 0.245507,-4.2962 l -35.92499,-40.42979 a 3.0618115,3.0377157 34.396422 0 0 -2.792601,-0.99648 z m 68.083237,2.5291 a 3.0618115,3.0377157 34.396422 0 0 -2.420629,3.55086 l 3.524642,18.22937 a 3.0618115,3.0377157 34.396422 0 0 3.578576,2.43802 l 22.6136445,-4.18728 a 3.0615054,3.037412 34.396422 0 0 2.419081,-3.54857 3.0615054,3.037412 34.396422 0 0 -3.5770296,-2.44031 l -19.6157749,3.63217 -2.366693,-12.24048 19.6157751,-3.63217 a 3.0615054,3.037412 34.396422 0 0 2.419079,-3.54859 3.0615054,3.037412 34.396422 0 0 -3.57702762,-2.44029 z"
         id="path2903" />
    </g>
    <g
       inkscape:label="workingLights"
       style="display:inline"
       id="workingLights">
      <path
         style="color:#000000;font-style:normal;font-variant:normal;font-weight:bold;font-stretch:normal;font-size:50.8px;line-height:1.25;font-family:'Century Gothic';-inkscape-font-specification:'Century Gothic, Bold';font-variant-ligatures:normal;font-variant-position:normal;font-variant-caps:normal;font-variant-numeric:normal;font-variant-alternates:normal;font-variant-east-asian:normal;font-feature-settings:normal;font-variation-settings:normal;text-indent:0;text-align:start;text-decoration:none;text-decoration-line:none;text-decoration-style:solid;text-decoration-color:#000000;letter-spacing:normal;word-spacing:normal;text-transform:none;writing-mode:lr-tb;direction:ltr;text-orientation:mixed;dominant-baseline:auto;baseline-shift:baseline;text-anchor:start;white-space:pre;shape-padding:0;shape-margin:0;inline-size:0;clip-rule:nonzero;display:inline;overflow:visible;visibility:visible;opacity:1;isolation:auto;mix-blend-mode:normal;color-interpolation:sRGB;color-interpolation-filters:linearRGB;solid-color:#000000;solid-opacity:1;vector-effect:none;fill:#c92857;fill-opacity:1;fill-rule:nonzero;stroke:none;stroke-width:8.46945;stroke-linecap:round;stroke-linejoin:round;stroke-miterlimit:4;stroke-dasharray:none;stroke-dashoffset:0;stroke-opacity:1;filter:url(#filter2867);color-rendering:auto;image-rendering:auto;shape-rendering:auto;text-rendering:auto;enable-background:accumulate;stop-color:#000000;stop-opacity:1"
         d="m 44.425781,85.902344 c -6.774535,0 -13.247083,1.856304 -19.095703,5.453125 -5.812574,3.561936 -10.466211,8.495973 -13.77539,14.574221 -3.3187842,6.09588 -4.9863286,12.85765 -4.9863286,20.02929 0,1.0152 0.1920413,1.96952 0.2578125,2.96485 A 4.2344999,4.2344999 0 0 0 2.671875,125.49414 H -20.34375 a 4.2349234,4.2349234 0 0 0 -4.234375,4.23438 v 17.95703 a 4.2349234,4.2349234 0 0 0 4.234375,4.23437 H 2.671875 a 4.2344999,4.2344999 0 0 0 4.234375,-4.23437 4.2344999,4.2344999 0 0 0 -4.234375,-4.23438 h -18.78125 v -9.48828 h 18.78125 a 4.2344999,4.2344999 0 0 0 4.2324219,-4.1543 c 0.786053,9.11304 4.1803541,17.39358 10.3574221,24.23047 7.111604,7.87125 16.544985,12.02149 27.251953,12.02149 10.286511,0 19.478995,-4.05239 26.625,-11.68164 l 0.002,-0.002 c 7.183445,-7.63884 10.878906,-17.30844 10.878906,-28.1875 0,-10.97666 -3.742161,-20.73788 -11.011719,-28.466794 a 4.2344999,4.2344999 0 0 0 -5.986328,-0.183594 4.2344999,4.2344999 0 0 0 -0.183593,5.986328 c 5.88148,6.25313 8.71289,13.5338 8.71289,22.66406 0,9.04128 -2.791041,16.23138 -8.582031,22.38867 a 4.2349234,4.2349234 0 0 0 -0.0059,0.006 c -5.770412,6.16316 -12.268615,9.00782 -20.449219,9.00782 -8.639671,0 -15.280008,-2.93408 -20.96875,-9.23047 -5.752697,-6.3672 -8.507813,-13.58534 -8.507813,-22.40235 0,-5.88237 1.314011,-11.12386 3.957032,-15.97851 2.651215,-4.86971 6.17773,-8.5962 10.765625,-11.406251 a 4.2349234,4.2349234 0 0 0 0.0078,-0.0039 c 4.613762,-2.837399 9.392231,-4.199218 14.658203,-4.199218 a 4.2344999,4.2344999 0 0 0 4.234375,-4.234375 4.2344999,4.2344999 0 0 0 -4.234375,-4.234375 z m -143.521484,1.716797 a 4.2344999,4.2344999 0 0 0 -4.234377,4.234375 v 68.255864 a 4.2344999,4.2344999 0 0 0 4.234377,4.23437 4.2344999,4.2344999 0 0 0 4.234375,-4.23437 V 91.853516 a 4.2344999,4.2344999 0 0 0 -4.234375,-4.234375 z m 11.736328,0 a 4.2344999,4.2344999 0 0 0 -2.208984,0.628906 4.2344999,4.2344999 0 0 0 -1.384766,5.826172 l 27.662109,44.916011 a 4.2349234,4.2349234 0 0 0 7.839844,-2.2207 V 91.853516 a 4.2344999,4.2344999 0 0 0 -4.234375,-4.234375 4.2344999,4.2344999 0 0 0 -4.234375,4.234375 V 121.81836 L -83.742188,89.632812 a 4.2344999,4.2344999 0 0 0 -3.617187,-2.013671 z m 39.947266,0 a 4.2344999,4.2344999 0 0 0 -4.234375,4.234375 v 68.255864 a 4.2344999,4.2344999 0 0 0 4.234375,4.23437 4.2344999,4.2344999 0 0 0 4.234375,-4.23437 V 91.853516 a 4.2344999,4.2344999 0 0 0 -4.234375,-4.234375 z m 14.773437,0 a 4.2349234,4.2349234 0 0 0 -4.234375,4.234375 v 68.255864 a 4.2349234,4.2349234 0 0 0 4.234375,4.23437 H 2.5625 A 4.2344999,4.2344999 0 0 0 6.796875,160.10938 4.2344999,4.2344999 0 0 0 2.5625,155.875 H -28.404297 V 96.087891 H 2.5625 A 4.2344999,4.2344999 0 0 0 6.796875,91.853516 4.2344999,4.2344999 0 0 0 2.5625,87.619141 Z m 123.003906,0 a 4.2344999,4.2344999 0 0 0 -4.234375,4.234375 v 68.255864 a 4.2344999,4.2344999 0 0 0 4.234375,4.23437 4.2344999,4.2344999 0 0 0 4.234375,-4.23437 V 91.853516 a 4.2344999,4.2344999 0 0 0 -4.234375,-4.234375 z m 11.736326,0 a 4.2344999,4.2344999 0 0 0 -2.208982,0.628906 4.2344999,4.2344999 0 0 0 -1.384766,5.826172 l 27.662108,44.916011 a 4.2349234,4.2349234 0 0 0 7.83985,-2.2207 V 91.853516 a 4.2344999,4.2344999 0 0 0 -4.23438,-4.234375 4.2344999,4.2344999 0 0 0 -4.23437,4.234375 V 121.81836 L 105.71875,89.632812 a 4.2344999,4.2344999 0 0 0 -3.61719,-2.013671 z m 39.94727,0 a 4.2344999,4.2344999 0 0 0 -4.23438,4.234375 v 68.255864 a 4.2344999,4.2344999 0 0 0 4.23438,4.23437 4.2344999,4.2344999 0 0 0 4.23437,-4.23437 V 91.853516 a 4.2344999,4.2344999 0 0 0 -4.23437,-4.234375 z M 44.294922,98.615234 c -7.001784,0 -13.381217,2.798506 -18.144531,7.949216 -4.798968,5.18926 -7.21875,12.00413 -7.21875,19.625 0,8.50423 3.122779,15.94938 9.146484,21.12305 a 4.2344999,4.2344999 0 0 0 5.970703,-0.45312 4.2344999,4.2344999 0 0 0 -0.453125,-5.97071 c -4.204879,-3.61151 -6.195312,-8.10781 -6.195312,-14.69922 0,-5.9281 1.641347,-10.2791 4.966797,-13.875 3.361107,-3.63446 7.00591,-5.22851 11.927734,-5.22851 4.823492,0 8.466162,1.62002 11.908203,5.39258 a 4.2349234,4.2349234 0 0 0 0.0098,0.0117 c 3.431643,3.73539 5.064453,8.00671 5.064453,13.60743 0,5.64222 -1.62707,9.91182 -5.021485,13.60742 -3.415271,3.71829 -7.007624,5.3125 -11.742187,5.3125 a 4.2344999,4.2344999 0 0 0 -4.234375,4.23437 4.2344999,4.2344999 0 0 0 4.234375,4.23438 c 6.8968,0 13.210918,-2.86213 17.978516,-8.05274 4.788453,-5.21332 7.253906,-11.92412 7.253906,-19.33593 0,-7.38607 -2.484285,-14.09244 -7.28711,-19.32618 l -0.002,-0.002 c -4.799043,-5.25873 -11.1798,-8.154236 -18.162096,-8.154236 z m -131.13086,12.482426 a 4.2349234,4.2349234 0 0 0 -4.220703,4.23437 v 44.77735 a 4.2344999,4.2344999 0 0 0 4.234375,4.23437 4.2344999,4.2344999 0 0 0 4.236328,-4.23437 v -29.84376 l 19.777344,32.06641 a 4.2344999,4.2344999 0 0 0 5.828125,1.38086 4.2344999,4.2344999 0 0 0 1.38086,-5.82812 l -27.617188,-44.77539 a 4.2349234,4.2349234 0 0 0 -3.619141,-2.01172 z"
         id="path2907"
         transform="matrix(0.98262723,-0.18194901,0.19627888,1.0151497,-24.74263,-0.14002489)" />
      <path
         style="color:#000000;font-style:normal;font-variant:normal;font-weight:bold;font-stretch:normal;font-size:50.8px;line-height:1.25;font-family:'Century Gothic';-inkscape-font-specification:'Century Gothic, Bold';font-variant-ligatures:normal;font-variant-position:normal;font-variant-caps:normal;font-variant-numeric:normal;font-variant-alternates:normal;font-variant-east-asian:normal;font-feature-settings:normal;font-variation-settings:normal;text-indent:0;text-align:start;text-decoration:none;text-decoration-line:none;text-decoration-style:solid;text-decoration-color:#000000;letter-spacing:normal;word-spacing:normal;text-transform:none;writing-mode:lr-tb;direction:ltr;text-orientation:mixed;dominant-baseline:auto;baseline-shift:baseline;text-anchor:start;white-space:pre;shape-padding:0;shape-margin:0;inline-size:0;clip-rule:nonzero;display:inline;overflow:visible;visibility:visible;opacity:1;isolation:auto;mix-blend-mode:normal;color-interpolation:sRGB;color-interpolation-filters:linearRGB;solid-color:#000000;solid-opacity:1;vector-effect:none;fill:#de57c3;fill-opacity:1;fill-rule:nonzero;stroke:none;stroke-width:6.09887;stroke-linecap:round;stroke-linejoin:round;stroke-miterlimit:4;stroke-dasharray:none;stroke-dashoffset:0;stroke-opacity:1;color-rendering:auto;image-rendering:auto;shape-rendering:auto;text-rendering:auto;enable-background:accumulate;stop-color:#000000;stop-opacity:1"
         d="m 36.025624,80.284727 c -6.468261,1.197701 -12.262407,4.158281 -17.156807,8.73658 -4.867835,4.537906 -8.341593,10.182429 -10.336731,16.745903 -1.9991973,6.57682 -2.3006474,13.48229 -0.9343515,20.54874 2.0350676,10.52532 7.2814595,19.25369 15.5079445,25.7097 8.280524,6.49839 17.970625,8.90623 28.233155,7.00596 9.844228,-1.82282 17.762419,-7.3886 23.130092,-16.17702 l 0.0016,-0.002 c 5.400571,-8.80287 7.065552,-18.85952 4.989188,-29.59843 -2.095268,-10.8367 -7.4633,-19.690086 -15.880211,-26.030086 a 3.0615054,3.037412 34.396422 0 0 -4.27551,0.583115 3.0615054,3.037412 34.396422 0 0 0.616292,4.267717 c 7.250036,5.461058 11.690481,12.714974 13.541772,22.289814 1.833579,9.48323 0.43219,17.71959 -4.208399,25.28256 a 3.0618115,3.0377157 34.396422 0 0 -0.0047,0.007 c -4.617141,7.5631 -10.765614,11.85355 -19.067701,13.39081 -8.748003,1.61983 -16.241944,-0.23942 -23.320195,-5.79428 -7.132295,-5.5973 -11.477535,-12.7865 -13.267592,-22.04462 -1.19593,-6.18535 -0.923365,-12.00687 0.786308,-17.63123 1.713183,-5.63591 4.578809,-10.2702 8.681299,-14.09352 a 3.0618115,3.0377157 34.396422 0 0 0.0031,-0.0045 c 4.123321,-3.857019 8.756323,-6.209785 14.119394,-7.202843 a 3.0615054,3.037412 34.396422 0 0 2.418708,-3.550502 3.0615054,3.037412 34.396422 0 0 -3.576656,-2.43838 z M -104.66582,108.14155 a 3.0615054,3.037412 34.396422 0 0 -2.42099,3.54894 l 13.39705,69.28924 a 3.0615054,3.037412 34.396422 0 0 3.578575,2.43802 3.0615054,3.037412 34.396422 0 0 2.419079,-3.54859 l -13.397054,-69.28923 a 3.0615054,3.037412 34.396422 0 0 -3.57666,-2.43838 z m 11.467187,-2.12333 a 3.0615054,3.037412 34.396422 0 0 -1.376442,0.68987 3.0615054,3.037412 34.396422 0 0 -0.248979,4.29883 l 35.996229,40.56161 a 3.0618115,3.0377157 34.396422 0 0 5.279267,-2.56264 l -8.816055,-45.59643 a 3.0615054,3.037412 34.396422 0 0 -3.576657,-2.43838 3.0615054,3.037412 34.396422 0 0 -2.420999,3.54894 l 6.711504,34.71175 -28.613151,-32.24338 a 3.0615054,3.037412 34.396422 0 0 -2.934717,-0.97017 z m 39.317973,-7.28035 a 3.0615054,3.037412 34.396422 0 0 -2.419079,3.54859 l 13.397052,69.28923 a 3.0615054,3.037412 34.396422 0 0 3.576658,2.43838 3.0615054,3.037412 34.396422 0 0 2.419078,-3.54858 l -13.397052,-69.28924 a 3.0615054,3.037412 34.396422 0 0 -3.576657,-2.43838 z m 14.516903,-2.688035 a 3.0618115,3.0377157 34.396422 0 0 -2.421,3.548942 l 13.397052,69.289233 a 3.0618115,3.0377157 34.396422 0 0 3.578949,2.43994 l 34.587832,-6.40448 a 3.0615054,3.037412 34.396422 0 0 2.420629,-3.55086 3.0615054,3.037412 34.396422 0 0 -3.5785776,-2.43802 l -31.5899634,5.84938 -12.239104,-63.30035 31.5899638,-5.849387 a 3.0615054,3.037412 34.396422 0 0 2.420629,-3.550858 3.0615054,3.037412 34.396422 0 0 -3.5785777,-2.438025 z M 81.503529,73.669341 a 3.0615054,3.037412 34.396422 0 0 -2.421,3.548942 l 13.397052,69.289237 a 3.0615054,3.037412 34.396422 0 0 3.578579,2.43803 3.0615054,3.037412 34.396422 0 0 2.419078,-3.54859 L 85.080187,76.107721 a 3.0615054,3.037412 34.396422 0 0 -3.576658,-2.43838 z M 92.970711,71.54601 a 3.0615054,3.037412 34.396422 0 0 -1.376441,0.689876 3.0615054,3.037412 34.396422 0 0 -0.24898,4.298826 l 35.99623,40.561608 a 3.0618115,3.0377157 34.396422 0 0 5.27927,-2.56263 l -8.81606,-45.596432 a 3.0615054,3.037412 34.396422 0 0 -3.57666,-2.43838 3.0615054,3.037412 34.396422 0 0 -2.421,3.548941 L 124.51858,104.75956 95.905433,72.516181 A 3.0615054,3.037412 34.396422 0 0 92.970711,71.54601 Z m 39.317979,-7.280346 a 3.0615054,3.037412 34.396422 0 0 -2.41908,3.548586 l 13.39704,69.28924 a 3.0615054,3.037412 34.396422 0 0 3.57667,2.43838 3.0615054,3.037412 34.396422 0 0 2.41907,-3.54859 L 135.86535,66.704044 a 3.0615054,3.037412 34.396422 0 0 -3.57666,-2.43838 z M 38.390385,93.214825 c -6.620133,1.225823 -12.012952,5.006753 -15.523225,10.837545 -3.52964,5.86297 -4.518317,12.79469 -3.07679,20.25023 1.607859,8.31579 5.857861,14.86107 12.49229,18.83726 a 3.0615054,3.037412 34.396422 0 0 4.184533,-1.03306 3.0615054,3.037412 34.396422 0 0 -1.066861,-4.18031 c -5.140806,-3.08102 -8.257205,-7.72591 -9.612304,-14.73445 -1.217853,-6.29868 -0.407688,-11.44332 2.321602,-15.97685 2.748661,-4.56571 6.342375,-7.06782 11.438703,-8.011485 5.009676,-0.927621 9.296362,0.154943 13.659215,3.544965 a 3.0618115,3.0377157 34.396422 0 0 0.0088,0.004 c 4.348514,3.35533 7.010155,7.76811 8.166886,13.7507 1.164199,6.02122 0.341447,11.07626 -2.426847,15.71031 -2.779596,4.65295 -6.320805,7.1532 -11.243413,8.0647 a 3.0615054,3.037412 34.396422 0 0 -2.418709,3.5505 3.0615054,3.037412 34.396422 0 0 3.576657,2.43839 c 6.506687,-1.20482 11.82785,-5.02918 15.340334,-10.90896 3.523782,-5.89871 4.565746,-12.73456 3.167714,-19.96515 C 65.985769,108.18822 62.443434,102.20078 56.934291,97.949037 51.427599,93.672782 44.97961,91.994726 38.390385,93.214825 Z M -88.075511,129.75763 a 3.0618115,3.0377157 34.396422 0 0 -2.340339,3.534 l 8.788618,45.45453 a 3.0615054,3.037412 34.396422 0 0 3.576657,2.43838 3.0615054,3.037412 34.396422 0 0 2.419079,-3.54859 l -6.687403,-34.58709 28.5468,32.12655 a 3.0615054,3.037412 34.396422 0 0 4.312709,0.27802 3.0615054,3.037412 34.396422 0 0 0.245508,-4.29619 l -35.925362,-40.43171 a 3.0618115,3.0377157 34.396422 0 0 -2.936267,-0.9679 z m 68.227275,2.50244 a 3.0618115,3.0377157 34.396422 0 0 -2.421001,3.54894 l 3.524643,18.22937 a 3.0618115,3.0377157 34.396422 0 0 3.578948,2.43994 l 22.6136439,-4.18728 a 3.0615054,3.037412 34.396422 0 0 2.4206292,-3.55085 3.0615054,3.037412 34.396422 0 0 -3.5785778,-2.43803 l -19.6157763,3.63217 -2.366695,-12.24048 19.6157767,-3.63218 a 3.0615054,3.037412 34.396422 0 0 2.4206292,-3.55085 3.0615054,3.037412 34.396422 0 0 -3.5785761,-2.43802 z"
         id="path2911" />
      <path
         style="color:#000000;font-style:normal;font-variant:normal;font-weight:bold;font-stretch:normal;font-size:50.8px;line-height:1.25;font-family:'Century Gothic';-inkscape-font-specification:'Century Gothic, Bold';font-variant-ligatures:normal;font-variant-position:normal;font-variant-caps:normal;font-variant-numeric:normal;font-variant-alternates:normal;font-variant-east-asian:normal;font-feature-settings:normal;font-variation-settings:normal;text-indent:0;text-align:start;text-decoration:none;text-decoration-line:none;text-decoration-style:solid;text-decoration-color:#000000;letter-spacing:normal;word-spacing:normal;text-transform:none;writing-mode:lr-tb;direction:ltr;text-orientation:mixed;dominant-baseline:auto;baseline-shift:baseline;text-anchor:start;white-space:pre;shape-padding:0;shape-margin:0;inline-size:0;clip-rule:nonzero;display:inline;overflow:visible;visibility:visible;opacity:1;isolation:auto;mix-blend-mode:normal;color-interpolation:sRGB;color-interpolation-filters:linearRGB;solid-color:#000000;solid-opacity:1;vector-effect:none;fill:#fdf8fd;fill-opacity:1;fill-rule:nonzero;stroke:none;stroke-width:3.42451;stroke-linecap:round;stroke-linejoin:round;stroke-miterlimit:4;stroke-dasharray:none;stroke-dashoffset:0;stroke-opacity:1;color-rendering:auto;image-rendering:auto;shape-rendering:auto;text-rendering:auto;enable-background:accumulate;stop-color:#000000;stop-opacity:1"
         d="m 36.279608,81.59833 c -6.225948,1.152833 -11.764773,3.978451 -16.490114,8.398609 -4.700619,4.381404 -8.041847,9.8059 -9.9753174,16.166511 -1.9357208,6.36799 -2.2317773,13.036 -0.9028343,19.90926 1.9813487,10.24749 7.0318707,18.63876 15.0184517,24.90649 8.016926,6.29152 17.224956,8.5795 27.155425,6.74072 9.507327,-1.76043 17.037892,-7.04782 22.241015,-15.56944 5.234845,-8.53145 6.841179,-18.18865 4.817901,-28.653 C 76.102354,102.93745 70.937773,94.435432 62.776699,88.288143 a 1.7190326,1.7055041 34.396422 0 0 -2.39943,0.327099 1.7190326,1.7055041 34.396422 0 0 0.345718,2.395057 c 7.505874,5.653768 12.149763,13.259061 14.054547,23.110561 1.886853,9.75875 0.426233,18.39532 -4.381235,26.23026 a 1.7192045,1.7056747 34.396422 0 0 -0.0016,0.002 c -4.781711,7.83267 -11.319084,12.40295 -19.959881,14.00293 -9.080063,1.68132 -17.05378,-0.29622 -24.39563,-6.05795 -7.372199,-5.78557 -11.915601,-13.31344 -13.759376,-22.8494 -1.233288,-6.37853 -0.955327,-12.43751 0.817825,-18.2707 1.775122,-5.83968 4.773138,-10.696972 9.043892,-14.677105 a 1.7192045,1.7056747 34.396422 0 0 0.0038,-7.1e-4 c 4.29238,-4.015159 9.178782,-6.502532 14.784166,-7.540457 A 1.7190326,1.7055041 34.396422 0 0 38.286734,82.9667 1.7190326,1.7055041 34.396422 0 0 36.279591,81.598333 Z m -140.691808,27.8549 a 1.7190326,1.7055041 34.396422 0 0 -1.35908,1.99367 l 13.397048,69.28923 a 1.7190326,1.7055041 34.396422 0 0 2.009433,1.36993 1.7190326,1.7055041 34.396422 0 0 1.357165,-1.9933 l -13.397056,-69.28924 a 1.7190326,1.7055041 34.396422 0 0 -2.00751,-1.37029 z m 11.553602,-2.13933 a 1.7190326,1.7055041 34.396422 0 0 -0.82592,0.39924 1.7190326,1.7055041 34.396422 0 0 -0.140439,2.41158 l 35.996599,40.56352 a 1.7192045,1.7056747 34.396422 0 0 2.964271,-1.43876 l -8.816055,-45.59643 a 1.7190326,1.7055041 34.396422 0 0 -2.007514,-1.37028 1.7190326,1.7055041 34.396422 0 0 -1.359086,1.99366 l 7.634377,39.48482 -31.850649,-35.89066 a 1.7190326,1.7055041 34.396422 0 0 -1.595584,-0.55669 z m 39.231552,-7.26434 a 1.7190326,1.7055041 34.396422 0 0 -1.359086,1.99366 l 13.397052,69.28924 a 1.7190326,1.7055041 34.396422 0 0 2.009436,1.36993 1.7190326,1.7055041 34.396422 0 0 1.359085,-1.99367 l -13.397052,-69.28923 a 1.7190326,1.7055041 34.396422 0 0 -2.009435,-1.36993 z M 81.757143,74.981028 a 1.7190326,1.7055041 34.396422 0 0 -1.359085,1.993664 L 93.79511,146.26393 a 1.7190326,1.7055041 34.396422 0 0 2.009436,1.36993 1.7190326,1.7055041 34.396422 0 0 1.357164,-1.99331 L 83.764658,76.351312 a 1.7190326,1.7055041 34.396422 0 0 -2.007515,-1.370284 z m 11.553608,-2.139334 a 1.7190326,1.7055041 34.396422 0 0 -0.825926,0.399238 1.7190326,1.7055041 34.396422 0 0 -0.138519,2.411226 l 35.994684,40.563872 a 1.7192045,1.7056747 34.396422 0 0 2.96427,-1.43875 L 122.4892,69.180849 a 1.7190326,1.7055041 34.396422 0 0 -2.00751,-1.370285 1.7190326,1.7055041 34.396422 0 0 -1.35909,1.993664 L 126.75697,109.28904 94.906336,73.39838 A 1.7190326,1.7055041 34.396422 0 0 93.310751,72.841694 Z M 132.5423,65.57735 a 1.7190326,1.7055041 34.396422 0 0 -1.35908,1.993664 l 13.39705,69.289236 a 1.7190326,1.7055041 34.396422 0 0 2.00944,1.36993 1.7190326,1.7055041 34.396422 0 0 1.35907,-1.99366 L 134.55174,66.94728 A 1.7190326,1.7055041 34.396422 0 0 132.5423,65.57735 Z M -39.109763,97.363486 a 1.7192045,1.7056747 34.396422 0 0 -1.359457,1.991746 l 13.397054,69.289238 a 1.7192045,1.7056747 34.396422 0 0 2.009435,1.36993 l 34.5878318,-6.40449 a 1.7190326,1.7055041 34.396422 0 0 1.3590852,-1.99366 1.7190326,1.7055041 34.396422 0 0 -2.0090625,-1.368 l -32.9054925,6.09297 -12.747085,-65.92762 32.9054929,-6.092971 a 1.7190326,1.7055041 34.396422 0 0 1.3590856,-1.993663 1.7190326,1.7055041 34.396422 0 0 -2.0090643,-1.368012 z m 77.754142,-2.835011 c -6.286039,1.16396 -11.285399,4.663622 -14.628687,10.217055 -3.354167,5.57147 -4.302269,12.11162 -2.909783,19.31353 1.552439,8.02918 5.553788,14.15728 11.860738,17.9372 a 1.7190326,1.7055041 34.396422 0 0 2.350486,-0.58023 1.7190326,1.7055041 34.396422 0 0 -0.59885,-2.3462 c -5.468282,-3.27728 -8.835257,-8.33899 -10.245774,-15.63415 -1.266893,-6.55232 -0.416159,-12.08853 2.488611,-16.91354 2.915645,-4.84307 6.902816,-7.62646 12.333238,-8.631989 5.356583,-0.991856 10.118389,0.221935 14.732361,3.807079 a 1.7192045,1.7056747 34.396422 0 0 0.0046,0.003 c 4.603258,3.55189 7.456932,8.30925 8.665543,14.56016 1.215474,6.28638 0.345101,11.73077 -2.588834,16.64209 -2.940282,4.92194 -6.87113,7.71395 -12.141049,8.68976 a 1.7190326,1.7055041 34.396422 0 0 -1.357165,1.99331 1.7190326,1.7055041 34.396422 0 0 2.007144,1.36837 c 6.159376,-1.14051 11.090901,-4.67311 14.442699,-10.28391 3.358141,-5.62143 4.35249,-12.06793 3.005727,-19.03336 -1.341092,-6.93612 -4.690205,-12.57663 -9.943322,-16.631659 l -0.0046,-0.0032 C 50.861461,94.919709 44.887588,93.372398 38.64437,94.528429 Z M -87.735474,131.05331 a 1.7192045,1.7056747 34.396422 0 0 -1.366767,1.99509 l 8.788617,45.45452 a 1.7190326,1.7055041 34.396422 0 0 2.009435,1.36993 1.7190326,1.7055041 34.396422 0 0 1.359085,-1.99366 l -7.608421,-39.35058 31.780894,35.76653 a 1.7190326,1.7055041 34.396422 0 0 2.421134,0.15553 1.7190326,1.7055041 34.396422 0 0 0.138147,-2.41315 l -35.924991,-40.42979 a 1.7192045,1.7056747 34.396422 0 0 -1.597133,-0.55442 z m 68.141222,2.52037 a 1.7192045,1.7056747 34.396422 0 0 -1.359458,1.99174 l 3.524644,18.22937 a 1.7192045,1.7056747 34.396422 0 0 2.009435,1.36993 l 22.6136442,-4.18728 a 1.7190326,1.7055041 34.396422 0 0 1.3590856,-1.99366 1.7190326,1.7055041 34.396422 0 0 -2.0090648,-1.36802 l -20.931304,3.87577 -2.874664,-14.8677 20.9313038,-3.87576 a 1.7190326,1.7055041 34.396422 0 0 1.3590858,-1.99366 1.7190326,1.7055041 34.396422 0 0 -2.0090629,-1.36801 z"
         id="path2923" />
    </g>
    <g
       inkscape:label="brokenLights"
       style="display:inline"
       id="brokenLights">
      <path
         style="color:#000000;font-style:normal;font-variant:normal;font-weight:bold;font-stretch:normal;font-size:50.8px;line-height:1.25;font-family:'Century Gothic';-inkscape-font-specification:'Century Gothic, Bold';font-variant-ligatures:normal;font-variant-position:normal;font-variant-caps:normal;font-variant-numeric:normal;font-variant-alternates:normal;font-variant-east-asian:normal;font-feature-settings:normal;font-variation-settings:normal;text-indent:0;text-align:start;text-decoration:none;text-decoration-line:none;text-decoration-style:solid;text-decoration-color:#000000;letter-spacing:normal;word-spacing:normal;text-transform:none;writing-mode:lr-tb;direction:ltr;text-orientation:mixed;dominant-baseline:auto;baseline-shift:baseline;text-anchor:start;white-space:pre;shape-padding:0;shape-margin:0;inline-size:0;clip-rule:nonzero;display:inline;overflow:visible;visibility:visible;opacity:1;isolation:auto;mix-blend-mode:normal;color-interpolation:sRGB;color-interpolation-filters:linearRGB;solid-color:#000000;solid-opacity:1;vector-effect:none;fill:#c92857;fill-opacity:1;fill-rule:nonzero;stroke:none;stroke-width:8.6;stroke-linecap:round;stroke-linejoin:round;stroke-miterlimit:4;stroke-dasharray:none;stroke-dashoffset:0;stroke-opacity:1;filter:url(#filter868);color-rendering:auto;image-rendering:auto;shape-rendering:auto;text-rendering:auto;enable-background:accumulate;stop-color:#000000"
         d="m -24.904704,106.68849 a 3.103518,2.9968888 72.750208 0 0 -2.359045,3.5913 l 2.422435,12.52877 a 3.103518,2.9968888 72.750208 0 0 3.536718,2.4996 l 22.6157802,-4.18767 a 3.1032077,2.9965891 72.750208 0 0 2.359045,-3.59129 3.1032077,2.9965891 72.750208 0 0 -3.5367183,-2.4996 l -19.6678979,3.64182 -1.244762,-6.43788 19.6678985,-3.64182 a 3.1032077,2.9965891 72.750208 0 0 2.3590451,-3.5913 3.1032077,2.9965891 72.750208 0 0 -3.5367184,-2.4996 z"
         id="path866" />
      <path
         id="path2915"
         d="m -24.904704,106.68849 a 3.103518,2.9968888 72.750208 0 0 -2.359045,3.5913 l 2.422435,12.52877 a 3.103518,2.9968888 72.750208 0 0 3.536718,2.4996 l 22.6157802,-4.18767 a 3.1032077,2.9965891 72.750208 0 0 2.359045,-3.59129 3.1032077,2.9965891 72.750208 0 0 -3.5367183,-2.4996 l -19.6678979,3.64182 -1.244762,-6.43788 19.6678985,-3.64182 a 3.1032077,2.9965891 72.750208 0 0 2.3590451,-3.5913 3.1032077,2.9965891 72.750208 0 0 -3.5367184,-2.4996 z"
         style="color:#000000;font-style:normal;font-variant:normal;font-weight:bold;font-stretch:normal;font-size:50.8px;line-height:1.25;font-family:'Century Gothic';-inkscape-font-specification:'Century Gothic, Bold';font-variant-ligatures:normal;font-variant-position:normal;font-variant-caps:normal;font-variant-numeric:normal;font-variant-alternates:normal;font-variant-east-asian:normal;font-feature-settings:normal;font-variation-settings:normal;text-indent:0;text-align:start;text-decoration:none;text-decoration-line:none;text-decoration-style:solid;text-decoration-color:#000000;letter-spacing:normal;word-spacing:normal;text-transform:none;writing-mode:lr-tb;direction:ltr;text-orientation:mixed;dominant-baseline:auto;baseline-shift:baseline;text-anchor:start;white-space:pre;shape-padding:0;shape-margin:0;inline-size:0;clip-rule:nonzero;display:inline;overflow:visible;visibility:visible;opacity:1;isolation:auto;mix-blend-mode:normal;color-interpolation:sRGB;color-interpolation-filters:linearRGB;solid-color:#000000;solid-opacity:1;vector-effect:none;fill:#de57c3;fill-opacity:1;fill-rule:nonzero;stroke:none;stroke-width:6.09887;stroke-linecap:round;stroke-linejoin:round;stroke-miterlimit:4;stroke-dasharray:none;stroke-dashoffset:0;stroke-opacity:1;color-rendering:auto;image-rendering:auto;shape-rendering:auto;text-rendering:auto;enable-background:accumulate;stop-color:#000000" />
      <path
         id="path2919"
         d="m -24.646705,108.02285 a 1.7426253,1.682753 72.750208 0 0 -1.323507,2.01742 l 2.422434,12.52877 a 1.7426253,1.682753 72.750208 0 0 1.984799,1.40277 l 22.6157797,-4.18767 a 1.7424511,1.6825848 72.750208 0 0 1.323892,-2.01542 1.7424511,1.6825848 72.750208 0 0 -1.98518302,-1.40476 l -20.95951568,3.88099 -1.761143,-9.1086 20.959515,-3.88098 a 1.7424511,1.6825848 72.750208 0 0 1.32389197,-2.01543 1.7424511,1.6825848 72.750208 0 0 -1.98518297,-1.40476 z"
         style="color:#000000;font-style:normal;font-variant:normal;font-weight:bold;font-stretch:normal;font-size:50.8px;line-height:1.25;font-family:'Century Gothic';-inkscape-font-specification:'Century Gothic, Bold';font-variant-ligatures:normal;font-variant-position:normal;font-variant-caps:normal;font-variant-numeric:normal;font-variant-alternates:normal;font-variant-east-asian:normal;font-feature-settings:normal;font-variation-settings:normal;text-indent:0;text-align:start;text-decoration:none;text-decoration-line:none;text-decoration-style:solid;text-decoration-color:#000000;letter-spacing:normal;word-spacing:normal;text-transform:none;writing-mode:lr-tb;direction:ltr;text-orientation:mixed;dominant-baseline:auto;baseline-shift:baseline;text-anchor:start;white-space:pre;shape-padding:0;shape-margin:0;inline-size:0;clip-rule:nonzero;display:inline;overflow:visible;visibility:visible;opacity:1;isolation:auto;mix-blend-mode:normal;color-interpolation:sRGB;color-interpolation-filters:linearRGB;solid-color:#000000;solid-opacity:1;vector-effect:none;fill:#fdf8fd;fill-opacity:1;fill-rule:nonzero;stroke:none;stroke-width:3.42451;stroke-linecap:round;stroke-linejoin:round;stroke-miterlimit:4;stroke-dasharray:none;stroke-dashoffset:0;stroke-opacity:1;color-rendering:auto;image-rendering:auto;shape-rendering:auto;text-rendering:auto;enable-background:accumulate;stop-color:#000000" />
      <path
         style="color:#000000;font-style:normal;font-variant:normal;font-weight:bold;font-stretch:normal;font-size:50.8px;line-height:1.25;font-family:'Century Gothic';-inkscape-font-specification:'Century Gothic, Bold';font-variant-ligatures:normal;font-variant-position:normal;font-variant-caps:normal;font-variant-numeric:normal;font-variant-alternates:normal;font-variant-east-asian:normal;font-feature-settings:normal;font-variation-settings:normal;text-indent:0;text-align:start;text-decoration:none;text-decoration-line:none;text-decoration-style:solid;text-decoration-color:#000000;letter-spacing:normal;word-spacing:normal;text-transform:none;writing-mode:lr-tb;direction:ltr;text-orientation:mixed;dominant-baseline:auto;baseline-shift:baseline;text-anchor:start;white-space:pre;shape-padding:0;shape-margin:0;inline-size:0;clip-rule:nonzero;display:inline;overflow:visible;visibility:visible;opacity:1;isolation:auto;mix-blend-mode:normal;color-interpolation:sRGB;color-interpolation-filters:linearRGB;solid-color:#000000;solid-opacity:1;vector-effect:none;fill:#c92857;fill-opacity:1;fill-rule:nonzero;stroke:none;stroke-width:8.6;stroke-linecap:round;stroke-linejoin:round;stroke-miterlimit:4;stroke-dasharray:none;stroke-dashoffset:0;stroke-opacity:1;filter:url(#filter862);color-rendering:auto;image-rendering:auto;shape-rendering:auto;text-rendering:auto;enable-background:accumulate;stop-color:#000000"
         d="m 96.577527,92.599919 a 3.103518,2.9968888 72.750208 0 0 -2.355208,3.590586 l 8.788461,45.453725 a 3.1032077,2.9965891 72.750208 0 0 3.53672,2.4996 3.1032077,2.9965891 72.750208 0 0 2.35904,-3.59129 l -6.7122,-34.71535 28.70271,32.30079 a 3.1032077,2.9965891 72.750208 0 0 4.24732,0.24245 3.1032077,2.9965891 72.750208 0 0 0.1511,-4.36951 L 99.369219,93.580142 a 3.103518,2.9968888 72.750208 0 0 -2.791692,-0.980223 z"
         id="path860" />
      <path
         id="path2927"
         d="m 96.577527,92.599919 a 3.103518,2.9968888 72.750208 0 0 -2.355208,3.590586 l 8.788461,45.453725 a 3.1032077,2.9965891 72.750208 0 0 3.53672,2.4996 3.1032077,2.9965891 72.750208 0 0 2.35904,-3.59129 l -6.7122,-34.71535 28.70271,32.30079 a 3.1032077,2.9965891 72.750208 0 0 4.24732,0.24245 3.1032077,2.9965891 72.750208 0 0 0.1511,-4.36951 L 99.369219,93.580142 a 3.103518,2.9968888 72.750208 0 0 -2.791692,-0.980223 z"
         style="color:#000000;font-style:normal;font-variant:normal;font-weight:bold;font-stretch:normal;font-size:50.8px;line-height:1.25;font-family:'Century Gothic';-inkscape-font-specification:'Century Gothic, Bold';font-variant-ligatures:normal;font-variant-position:normal;font-variant-caps:normal;font-variant-numeric:normal;font-variant-alternates:normal;font-variant-east-asian:normal;font-feature-settings:normal;font-variation-settings:normal;text-indent:0;text-align:start;text-decoration:none;text-decoration-line:none;text-decoration-style:solid;text-decoration-color:#000000;letter-spacing:normal;word-spacing:normal;text-transform:none;writing-mode:lr-tb;direction:ltr;text-orientation:mixed;dominant-baseline:auto;baseline-shift:baseline;text-anchor:start;white-space:pre;shape-padding:0;shape-margin:0;inline-size:0;clip-rule:nonzero;display:inline;overflow:visible;visibility:visible;opacity:1;isolation:auto;mix-blend-mode:normal;color-interpolation:sRGB;color-interpolation-filters:linearRGB;solid-color:#000000;solid-opacity:1;vector-effect:none;fill:#de57c3;fill-opacity:1;fill-rule:nonzero;stroke:none;stroke-width:6.09887;stroke-linecap:round;stroke-linejoin:round;stroke-miterlimit:4;stroke-dasharray:none;stroke-dashoffset:0;stroke-opacity:1;color-rendering:auto;image-rendering:auto;shape-rendering:auto;text-rendering:auto;enable-background:accumulate;stop-color:#000000" />
      <path
         id="path2931"
         d="m 96.809036,93.941249 a 1.7426253,1.682753 72.750208 0 0 -1.29318,2.009737 l 8.788464,45.453724 a 1.7424511,1.6825848 72.750208 0 0 1.98518,1.40476 1.7424511,1.6825848 72.750208 0 0 1.32543,-2.01777 l -7.622293,-39.4223 31.868403,35.86308 a 1.7424511,1.6825848 72.750208 0 0 2.38581,0.13531 1.7424511,1.6825848 72.750208 0 0 0.0846,-2.45135 L 98.405229,94.485643 a 1.7426253,1.682753 72.750208 0 0 -1.596193,-0.544394 z"
         style="color:#000000;font-style:normal;font-variant:normal;font-weight:bold;font-stretch:normal;font-size:50.8px;line-height:1.25;font-family:'Century Gothic';-inkscape-font-specification:'Century Gothic, Bold';font-variant-ligatures:normal;font-variant-position:normal;font-variant-caps:normal;font-variant-numeric:normal;font-variant-alternates:normal;font-variant-east-asian:normal;font-feature-settings:normal;font-variation-settings:normal;text-indent:0;text-align:start;text-decoration:none;text-decoration-line:none;text-decoration-style:solid;text-decoration-color:#000000;letter-spacing:normal;word-spacing:normal;text-transform:none;writing-mode:lr-tb;direction:ltr;text-orientation:mixed;dominant-baseline:auto;baseline-shift:baseline;text-anchor:start;white-space:pre;shape-padding:0;shape-margin:0;inline-size:0;clip-rule:nonzero;display:inline;overflow:visible;visibility:visible;opacity:1;isolation:auto;mix-blend-mode:normal;color-interpolation:sRGB;color-interpolation-filters:linearRGB;solid-color:#000000;solid-opacity:1;vector-effect:none;fill:#fdf8fd;fill-opacity:1;fill-rule:nonzero;stroke:none;stroke-width:3.42451;stroke-linecap:round;stroke-linejoin:round;stroke-miterlimit:4;stroke-dasharray:none;stroke-dashoffset:0;stroke-opacity:1;color-rendering:auto;image-rendering:auto;shape-rendering:auto;text-rendering:auto;enable-background:accumulate;stop-color:#000000" />
    </g>
  </g>
</svg>
