
<?xml-stylesheet type='text/css' href='../main.css'?>
<svg id="svg8" width="1920" height="1080" version="1.1" viewBox="0 0 508 285.75" xmlns="http://www.w3.org/2000/svg">
 <g id="layer2">
  <rect id="rect840" x="-85.652" y="-84.554" width="687.42" height="483.17" rx="4.4648" ry="4.1872" fill="#545454" stroke-linecap="round" stroke-linejoin="round" stroke-opacity=".98824" stroke-width="1.411"/>
 </g>
 <g id="layer1">
  <path id="wave1" d="m-44.259 158.4s35.718-71.436 142.1-18.636c106.38 52.801-3.1059 151.41 217.41 76.095 220.52-75.319 243.04-9.3178 243.04-9.3178l6.9883 159.18-621.96-8.5413z" fill="#5956ff" fill-opacity=".79436"/>
  <path id="wave2" d="m-72.989 159.95c150.64 58.236 6.9883 118.8 238.38 13.2 231.39-105.6 76.872-18.636 262.45 34.942s159.95 62.895 159.95 62.895l-3.1059 93.954-641.37-7.7648z" fill="#8256ff" fill-opacity=".55242"/>
  <path id="wave0" d="m-81.53 197.23s128.12-109.48 125.01-38.048 163.84 73.766 177.81 49.695-60.565-168.5 96.284-48.142c156.85 120.35 162.28 37.271 162.28 37.271s26.4-125.01 33.389-6.2118c6.9883 118.8 8.5413 121.13 8.5413 121.13l-595.56-2.3294z" fill="#ff56e1" fill-opacity=".57661" image-rendering="auto"/>
 </g>
</svg>
